<svg id="Calque_2" data-name="Calque 2" xmlns="http://www.w3.org/2000/svg" viewBox="0 0 935.93 924.5"><defs><style>.cls-1{fill:#1951a0;}.cls-2{fill:#2a6ab2;}.cls-3{fill:#27348b;}.cls-4{fill:#164194;}.cls-5{fill:#253081;}</style></defs><path class="cls-1" d="M354,416.7v-3.1h-5.7v-5.3h-3.4v5.3h-3.5v3.1h3.5v14.8c0,3.9,1.5,5.3,5.7,5.3h2.2v-3.2h-1.9c-1.9,0-2.5-.6-2.5-2.1V416.6H354Zm-25.7,17.6c-2.9,0-4.5-1.3-4.5-3.6,0-2,1.6-3.2,5.7-4.2,3.1-.8,4.6-1.6,5.1-2.7h.1V429c0,3.1-2.7,5.3-6.4,5.3m-.2,3.2a8,8,0,0,0,6.7-3.1h.1v2.5h3.2V420.6c0-4.6-3.2-7.5-8.4-7.5-4.9,0-8.5,2.9-9.3,7.4l3.5.7a5.73,5.73,0,0,1,5.8-5c2.9,0,4.8,1.4,4.8,3.5,0,1.9-1.4,2.8-5.9,3.9-5.8,1.4-8.2,3.4-8.2,7.4s3,6.5,7.7,6.5m-21.5,0a9.8,9.8,0,0,0,10.1-8.5l-3.3-.7c-.7,3.8-3.2,6-6.8,6-4.4,0-7.3-3.6-7.3-9.1s2.9-9.1,7.3-9.1c3.6,0,6.1,2.1,6.8,6l3.3-.7a9.8,9.8,0,0,0-10.1-8.5c-6.4,0-10.7,5-10.7,12.3s4.3,12.3,10.7,12.3m-18.9-.6h3.4V413.7h-3.4Zm-.2-27.3h3.9v-3.8h-3.9Zm-15.8,24.7c-4.4,0-7.2-3.6-7.2-9.1s2.8-9.1,7-9.1a6.77,6.77,0,0,1,6.9,6.8v4.5a6.75,6.75,0,0,1-6.7,6.9m-.2,3.2a9.12,9.12,0,0,0,7-3h0v2.3h3.3v-32h-3.4V416h-.1a8.79,8.79,0,0,0-6.8-3.1c-6.1,0-10.4,5-10.4,12.3s4.3,12.3,10.4,12.3m-33.9-.6H241V422.3a5.83,5.83,0,0,1,6.1-6.1c3.6,0,5.8,2.3,5.8,6.1v14.6h3.4v-15c0-5.4-3.4-8.9-8.8-8.9a8.73,8.73,0,0,0-6.5,2.8h-.1v-2.1h-3.3Zm-21,9.8h3.5L234,413.6h-3.5l-7.1,17.3h-.1l-7.1-17.3h-3.6l8.9,21.3Zm-17-9.2c6.4,0,10.7-3.4,10.7-8.4,0-4.8-2.9-7.5-10.9-10.1-5.6-1.8-7.4-3-7.4-5.4,0-2.8,2.5-4.7,6.2-4.7,4,0,6.7,2.2,7.6,6.3l3.5-.7c-1-5.5-5.3-8.9-11.1-8.9s-9.8,3.3-9.8,8.1c0,4.1,2.5,6.3,9.8,8.7,6.4,2,8.5,3.7,8.5,6.8s-2.8,5-7.1,5c-5.6,0-8.5-2.6-9.1-8l-3.6.6c.7,6.9,5.2,10.7,12.7,10.7"/><path class="cls-2" d="M271.87,504.5c18.8,0,30.7,10.6,34.4,29.7l44.6-7.9c-6.3-39.6-36.4-64.8-79-64.8-42.2,0-74.1,27.1-82.7,69.2l.09,0A118.1,118.1,0,0,0,187,554.1c0,55.2,35.4,92.6,85,92.6,29.4,0,52.9-12.1,66.7-32.7a79.06,79.06,0,0,0,12.2-32.1l-44.6-7.9s-3.2,29.7-34.4,29.7c-23.1,0-37.7-18.2-37.7-49.6a81.79,81.79,0,0,1,1.2-14.5C239.27,517.2,252.57,504.5,271.87,504.5Z"/><path class="cls-2" d="M445,441h26.8V399h-33.1c-34.7,0-53.9,18.5-53.9,49.6v17.8h-34V508h34V641.7h47.3V508h30.3V466.4h-30.3V453.2C432.07,445.3,436.37,441,445,441Z"/><path class="cls-2" d="M587.07,466.5l-82.5-.1c26,0,38.7-12.9,38.7-36.7v-7.2h-46.8v44h-24.4v41.6h24.4v77.1c0,36.2,13.6,52.7,47.1,55.9,4.2.4,8.6.6,13.4.6h23.8V596.4h-19.2c-13.9,0-17.8-3.3-17.8-14.2v-74h43.3V487.7l-.18,0,.18-.07Z"/><path class="cls-2" d="M706.77,574c-2.5,14.3-9.6,23.8-21.2,27.7a41.59,41.59,0,0,1-13.2,2c-19.1,0-32.3-12.3-36.3-34.2h0a.49.49,0,0,1,0-.11,81.57,81.57,0,0,1-1.3-15.3c0-31.4,14.5-49.6,37.7-49.6,18.8,0,30.7,10.6,34.4,29.7l44.6-7.9c-6.3-39.7-36.4-64.8-79-64.8-34.6,0-62.3,18.3-75.9,48.1h0a107.74,107.74,0,0,0-9.1,44.5,111,111,0,0,0,5.2,34.5c11.6,35.7,41.4,58.1,79.7,58.1,29.1,0,52.4-11.7,66.2-31.8h0a79.78,79.78,0,0,0,12.8-33Z"/><path class="cls-1" d="M271.87,461.5c-42.2,0-74.1,27.1-82.7,69.2,15,3.1,30.5,5.3,46.2,8.9,3.9-22.4,17.2-35.1,36.5-35.1,18.8,0,30.7,10.6,34.4,29.7l44.6-7.9c-6.3-39.6-36.4-64.8-79-64.8"/><path class="cls-3" d="M445,441h26.8V399h-33.1c-34.7,0-53.9,18.5-53.9,49.6v17.8h-34V508h111.6V466.4h-30.3V453.2c0-7.9,4.3-12.2,12.9-12.2"/><path class="cls-1" d="M432.07,508.2h-47.3v7.5c13.7,42.6,29.8,72.4,47.3,93.5Z"/><path class="cls-3" d="M587.07,466.5l-82.5-.1c26,0,38.7-12.9,38.7-36.7v-7.2h-46.8v44h-24.4v41.6h24.4c32.6-3.2,65-9.6,90.6-20.5Z"/><path class="cls-1" d="M496.47,508.2v77c0,36.2,13.6,52.7,47.1,55.9,11.6-19.5,24.1-33.9,37.2-44.7h-19.2c-13.9,0-17.8-3.3-17.8-14.2v-74h43.3V487.7c-25.6,10.8-58,17.3-90.6,20.5"/><path class="cls-4" d="M580.77,641.7V596.4c-13,10.8-25.6,25.2-37.2,44.7,4.2.4,8.6.6,13.4.6Z"/><path class="cls-3" d="M685.57,601.7c17.6,6.8,35.5,10.1,53,13.2a79.78,79.78,0,0,0,12.8-33l-44.6-7.9c-2.5,14.3-9.6,23.8-21.2,27.7"/><path class="cls-3" d="M636.07,569.4a81.57,81.57,0,0,1-1.3-15.3c0-31.4,14.5-49.6,37.7-49.6,18.8,0,30.7,10.6,34.4,29.7l44.6-7.9c-6.3-39.7-36.4-64.8-79-64.8-34.6,0-62.3,18.3-75.9,48.1,12,26.3,25.3,45.5,39.5,59.8"/><path class="cls-1" d="M592.67,588.6c11.6,35.7,41.4,58.1,79.7,58.1,29.1,0,52.4-11.7,66.2-31.8-17.4-3.1-35.3-6.4-53-13.2a41.59,41.59,0,0,1-13.2,2c-19.1,0-32.3-12.3-36.3-34.2-14.7,4-29.3,9.8-43.4,19.1"/><path class="cls-2" d="M433.47,257.4c3.7-4.9,3.5-11.7-.7-15.9l-8.4-8.4c-4.6,4.6-5.2,11.7-1.6,16.3l-7.3-7.3c-4.6-4.6-12.4-4.3-17.4.6l8.4,8.4c4.6,4.6,12.3,4.3,17.3-.6l7.4,7.4a12.35,12.35,0,0,0-16.3,1.6l8.4,8.4a11.89,11.89,0,0,0,14.2,1.7,47.8,47.8,0,0,1,6,26.2c-.4-2.9-18.2-49-104.4-17.4a150.7,150.7,0,0,0-11.3-11.4c-2.4-2.8-30.4-37-18.9-81.8-21.8,5.8-38,22.3-43.5,41.6-21.8-10.7-48.5-21.6-80.9-32.3,17.5,88.7,47.4,113.1,78.2,122.9a884.91,884.91,0,0,0-73.4,51.7c56.8,21.5,94.8,20.7,123.2,10,14-5.53,25.75-13.44,36.3-22.2h0s.19-.1.45-.38C380.92,330,402.09,296,443.47,296a48.91,48.91,0,0,1-10.3,27.2l3.3,2.6C452.67,305.4,451.17,275.5,433.47,257.4Z"/><path class="cls-3" d="M308.87,185.2c-21.8,5.8-38,22.3-43.5,41.6,28,13.8,48.1,27.3,62.4,40.2-2.4-2.8-30.4-37-18.9-81.8"/><path class="cls-5" d="M265.07,254.9,328,267.2l-.2-.2c-14.3-12.9-34.4-26.4-62.4-40.2a52.51,52.51,0,0,0-.3,28.1"/><path class="cls-3" d="M339.07,278.4a150.7,150.7,0,0,0-11.3-11.4l.2.2-62.9-12.3a52.51,52.51,0,0,1,.3-28.1c-21.8-10.7-48.5-21.6-80.9-32.3,17.5,88.7,47.4,113.1,78.2,122.9,30-18.8,55.2-31.2,76.4-39h0"/><path class="cls-1" d="M433.47,257.4c3.7-4.9,3.5-11.7-.7-15.9l-8.4-8.4c-4.6,4.6-5.2,11.7-1.6,16.3l-7.3-7.3c-4.6-4.6-12.4-4.3-17.4.6l8.4,8.4c4.6,4.6,12.3,4.3,17.3-.6l7.4,7.4a12.35,12.35,0,0,0-16.3,1.6l8.4,8.4a11.89,11.89,0,0,0,14.2,1.7,47.8,47.8,0,0,1,6,26.2c-.4-2.9-18.2-49-104.4-17.4,39.7,45.1,10.1,78.9,9.7,78.4-9.9-16.8-22.7-24.2-36.8-28.5a90.74,90.74,0,0,0,.5,50.8c56.5-22.3,75.7-83.1,131-83.1h0a48.91,48.91,0,0,1-10.3,27.2l3.3,2.6C452.67,305.4,451.17,275.5,433.47,257.4Z"/><path class="cls-5" d="M339.07,278.4h0c-21.2,7.8-46.4,20.2-76.4,39,16.8,5.3,33.9,6.3,49.3,11h0c14.1,4.3,26.9,11.7,36.8,28.5C349.17,357.3,378.87,323.5,339.07,278.4Z"/><path class="cls-3" d="M338.67,614c-10.2-16.9-21.1-29.9-32.4-40,0,0-3.2,29.7-34.4,29.7-23.1,0-37.7-18.2-37.7-49.6a81.79,81.79,0,0,1,1.2-14.5c-15.6-3.6-31.2-5.8-46.1-8.9a117.54,117.54,0,0,0-2.3,23.4c0,55.2,35.4,92.6,85,92.6,29.4,0,52.9-12.1,66.7-32.7"/><path class="cls-4" d="M429.57,711.77c0,7.69-4.82,14.64-16.59,14.64h-7V742h-9V696.88h16.65C425,696.88,429.57,704.26,429.57,711.77Zm-9.21-.12a6.23,6.23,0,0,0-6.59-6.41H406v13h7.26C418.22,718.24,420.36,714.94,420.36,711.65Z"/><path class="cls-4" d="M467.76,708.72V742h-8.18v-3.85A14.05,14.05,0,0,1,449,742.76c-9.64,0-16.47-7.69-16.47-17.57s7-17.33,16.47-17.33a13.9,13.9,0,0,1,10.61,4.82v-4Zm-8.06,16.59a9.31,9.31,0,0,0-9.33-9.58c-5.55,0-9.27,4.4-9.27,9.58s3.78,9.64,9.27,9.64A9.32,9.32,0,0,0,459.7,725.31Z"/><path class="cls-4" d="M475.5,708.72h8.24v4.45a9.94,9.94,0,0,1,9.15-5.37,12.17,12.17,0,0,1,4,.74l-.73,8.23a13.37,13.37,0,0,0-4-.67c-4.52,0-8.12,2.81-8.12,10.07V742h-8.6Z"/><path class="cls-4" d="M500.33,699.69a5.31,5.31,0,1,1,5.3,5.31A5.19,5.19,0,0,1,500.33,699.69Zm1,42.28V708.72h8.61V742Z"/><path class="cls-4" d="M515,736.42l4.57-5.43a12.39,12.39,0,0,0,9.21,4.63c2.63,0,4.58-1.34,4.58-3.23,0-1.22-.79-2.14-2.38-2.87-1.83-.85-6.22-2.26-8.24-3.29-3.78-1.83-5.73-4.76-5.73-8.6,0-5.8,4.88-10,12.45-10a15.74,15.74,0,0,1,11.65,4.76l-4.27,5.55a11.29,11.29,0,0,0-7.63-3.29c-2.38,0-3.78,1.28-3.78,2.8,0,1.16.73,2.32,2.93,3a81.52,81.52,0,0,1,8,3.24c3.72,1.95,5.61,4.51,5.61,8.42,0,6-5.12,10.67-13.24,10.67A17.19,17.19,0,0,1,515,736.42Z"/></svg>
