<?xml version="1.0" encoding="iso-8859-1"?>
<!-- Generator: Adobe Illustrator 26.1.0, SVG Export Plug-In . SVG Version: 6.00 Build 0)  -->
<svg version="1.1" id="Calque_2" xmlns="http://www.w3.org/2000/svg" xmlns:xlink="http://www.w3.org/1999/xlink" x="0px" y="0px"
	 viewBox="0 0 935.935 924.5" style="enable-background:new 0 0 935.935 924.5;" xml:space="preserve">
<rect x="0" y="993.197" style="display:none;fill:#010202;" width="935.935" height="935.935"/>
<g>
	<path style="fill:#1951A0;" d="M353.967,416.7v-3.1h-5.7v-5.3h-3.4v5.3h-3.5v3.1h3.5v14.8c0,3.9,1.5,5.3,5.7,5.3h2.2v-3.2h-1.9
		c-1.9,0-2.5-0.6-2.5-2.1v-14.9h5.6V416.7z M328.267,434.3c-2.9,0-4.5-1.3-4.5-3.6c0-2,1.6-3.2,5.7-4.2c3.1-0.8,4.6-1.6,5.1-2.7h0.1
		v5.2C334.667,432.1,331.967,434.3,328.267,434.3 M328.068,437.5c2.9,0,5.4-1.2,6.7-3.1h0.1v2.5h3.2v-16.3c0-4.6-3.2-7.5-8.4-7.5
		c-4.9,0-8.5,2.9-9.3,7.4l3.5,0.7c0.6-3.1,2.8-5,5.8-5c2.9,0,4.8,1.4,4.8,3.5c0,1.9-1.4,2.8-5.9,3.9c-5.8,1.4-8.2,3.4-8.2,7.4
		C320.367,435,323.367,437.5,328.068,437.5 M306.567,437.5c5.3,0,9.2-3.3,10.1-8.5l-3.3-0.7c-0.7,3.8-3.2,6-6.8,6
		c-4.4,0-7.3-3.6-7.3-9.1s2.9-9.1,7.3-9.1c3.6,0,6.1,2.1,6.8,6l3.3-0.7c-0.9-5.2-4.8-8.5-10.1-8.5c-6.4,0-10.7,5-10.7,12.3
		C295.767,432.6,300.167,437.5,306.567,437.5 M287.667,436.9h3.4v-23.2h-3.4V436.9z M287.467,409.6h3.9v-3.8h-3.9V409.6z
		 M271.667,434.3c-4.4,0-7.2-3.6-7.2-9.1s2.8-9.1,7-9.1c3.9,0,6.9,3,6.9,6.8v4.5C278.367,431.3,275.367,434.3,271.667,434.3
		 M271.467,437.5c2.8,0,5.4-1.1,7-3l0,0v2.3h3.3v-32h-3.4V416h-0.1c-1.5-1.8-3.9-3.1-6.8-3.1c-6.1,0-10.4,5-10.4,12.3
		C261.067,432.5,265.367,437.5,271.467,437.5 M237.567,436.9h3.4v-14.6c0-3.6,2.5-6.1,6.1-6.1c3.6,0,5.8,2.3,5.8,6.1v14.6h3.4v-15
		c0-5.4-3.4-8.9-8.8-8.9c-2.5,0-5.1,1.1-6.5,2.8h-0.1v-2.1h-3.3V436.9z M216.567,446.7h3.5l13.9-33.1h-3.5l-7.1,17.3h-0.1l-7.1-17.3
		h-3.6l8.9,21.3L216.567,446.7z M199.567,437.5c6.4,0,10.7-3.4,10.7-8.4c0-4.8-2.9-7.5-10.9-10.1c-5.6-1.8-7.4-3-7.4-5.4
		c0-2.8,2.5-4.7,6.2-4.7c4,0,6.7,2.2,7.6,6.3l3.5-0.7c-1-5.5-5.3-8.9-11.1-8.9c-5.8,0-9.8,3.3-9.8,8.1c0,4.1,2.5,6.3,9.8,8.7
		c6.4,2,8.5,3.7,8.5,6.8c0,3-2.8,5-7.1,5c-5.6,0-8.5-2.6-9.1-8l-3.6,0.6C187.567,433.7,192.067,437.5,199.567,437.5"/>
	<g>
		<path style="fill:#2A6AB2;" d="M271.868,504.5c18.8,0,30.7,10.6,34.4,29.7l44.6-7.9c-6.3-39.6-36.4-64.8-79-64.8
			c-42.2,0-74.1,27.1-82.7,69.2c0.032,0.007,0.064,0.013,0.096,0.019c-1.497,7.394-2.296,15.188-2.296,23.381
			c0,55.2,35.4,92.6,85,92.6c29.4,0,52.9-12.1,66.7-32.7c6.1-9.1,10.3-19.9,12.2-32.1l-44.6-7.9c0,0-3.2,29.7-34.4,29.7
			c-23.1,0-37.7-18.2-37.7-49.6c0-5.2,0.4-10.1,1.2-14.5C239.267,517.2,252.568,504.5,271.868,504.5z"/>
		<path style="fill:#2A6AB2;" d="M444.967,441h26.8v-42h-33.1c-34.7,0-53.9,18.5-53.9,49.6v17.8h-34V508h34v7.7v126h47.3v-32.5V508
			h30.3v-41.6h-30.3v-13.2C432.068,445.3,436.368,441,444.967,441z"/>
		<path style="fill:#2A6AB2;" d="M587.068,466.5l-82.5-0.1c26,0,38.7-12.9,38.7-36.7v-7.2h-46.8v44h-24.4v41.6h24.4
			c0.001,0,0.003,0,0.004,0c0,0.034-0.004,0.066-0.004,0.1v77c0,36.2,13.6,52.7,47.1,55.9c4.2,0.4,8.6,0.6,13.4,0.6h23.8v0v-45.3
			l0,0h-19.2c-13.9,0-17.8-3.3-17.8-14.2v-74h43.3v-20.5c-0.059-0.01-0.115-0.019-0.174-0.029c0.057-0.024,0.117-0.047,0.174-0.071
			V466.5z"/>
		<path style="fill:#2A6AB2;" d="M706.767,574c-2.5,14.3-9.6,23.8-21.2,27.7c-3.9,1.3-8.3,2-13.2,2c-19.1,0-32.3-12.3-36.3-34.2
			c-0.013,0.003-0.025,0.007-0.038,0.011c0.013-0.037,0.025-0.073,0.038-0.111c-0.9-4.7-1.3-9.8-1.3-15.3
			c0-31.4,14.5-49.6,37.7-49.6c18.8,0,30.7,10.6,34.4,29.7l44.6-7.9c-6.3-39.7-36.4-64.8-79-64.8c-34.6,0-62.3,18.3-75.9,48.1v0
			c-5.8,12.9-9.1,27.8-9.1,44.5c0,12.5,1.8,24.1,5.2,34.5c11.6,35.7,41.4,58.1,79.7,58.1c29.1,0,52.4-11.7,66.2-31.8h0
			c6.4-9.3,10.8-20.4,12.8-33L706.767,574z"/>
	</g>
	<path style="fill:#1951A0;" d="M271.867,461.5c-42.2,0-74.1,27.1-82.7,69.2c15,3.1,30.5,5.3,46.2,8.9c3.9-22.4,17.2-35.1,36.5-35.1
		c18.8,0,30.7,10.6,34.4,29.7l44.6-7.9C344.568,486.7,314.467,461.5,271.867,461.5"/>
	<path style="fill:#27348B;" d="M444.967,441h26.8v-42h-33.1c-34.7,0-53.9,18.5-53.9,49.6v17.8h-34V508h34l0,0h47.3l0,0h30.3v-41.6
		h-30.3v-13.2C432.068,445.3,436.367,441,444.967,441"/>
	<path style="fill:#1951A0;" d="M432.068,508.2h-47.3v7.5c13.7,42.6,29.8,72.4,47.3,93.5V508.2z"/>
	<path style="fill:#27348B;" d="M587.068,466.5l-82.5-0.1c26,0,38.7-12.9,38.7-36.7v-7.2h-46.8v44h-24.4v41.6h24.4l0,0
		c32.6-3.2,65-9.6,90.6-20.5V466.5z"/>
	<path style="fill:#1951A0;" d="M496.467,508.2v77c0,36.2,13.6,52.7,47.1,55.9c11.6-19.5,24.1-33.9,37.2-44.7l0,0h-19.2
		c-13.9,0-17.8-3.3-17.8-14.2v-74h43.3v-20.5C561.467,498.5,529.068,505,496.467,508.2"/>
	<path style="fill:#164194;" d="M580.767,641.7v-45.3c-13,10.8-25.6,25.2-37.2,44.7c4.2,0.4,8.6,0.6,13.4,0.6L580.767,641.7
		L580.767,641.7z"/>
	<path style="fill:#27348B;" d="M685.568,601.7c17.6,6.8,35.5,10.1,53,13.2c6.4-9.3,10.8-20.4,12.8-33l-44.6-7.9
		C704.267,588.3,697.167,597.8,685.568,601.7"/>
	<path style="fill:#27348B;" d="M636.068,569.4c-0.9-4.7-1.3-9.8-1.3-15.3c0-31.4,14.5-49.6,37.7-49.6c18.8,0,30.7,10.6,34.4,29.7
		l44.6-7.9c-6.3-39.7-36.4-64.8-79-64.8c-34.6,0-62.3,18.3-75.9,48.1C608.568,535.9,621.867,555.1,636.068,569.4"/>
	<g>
		<g>
			<path style="fill:#1951A0;" d="M592.667,588.6c11.6,35.7,41.4,58.1,79.7,58.1c29.1,0,52.4-11.7,66.2-31.8
				c-17.4-3.1-35.3-6.4-53-13.2c-3.9,1.3-8.3,2-13.2,2c-19.1,0-32.3-12.3-36.3-34.2C621.367,573.5,606.767,579.3,592.667,588.6"/>
		</g>
	</g>
	<path style="fill:#2A6AB2;" d="M433.467,257.4c3.7-4.9,3.5-11.7-0.7-15.9l-8.4-8.4c-4.6,4.6-5.2,11.7-1.6,16.3l-7.3-7.3
		c-4.6-4.6-12.4-4.3-17.4,0.6l8.4,8.4c4.6,4.6,12.3,4.3,17.3-0.6l7.4,7.4c-4.7-3.6-11.7-3.1-16.3,1.6l8.4,8.4
		c3.7,3.7,9.5,4.3,14.2,1.7c4.5,7.9,6.5,17.1,6,26.2c-0.4-2.9-18.2-49-104.4-17.4c-3.3-3.7-7-7.5-11.3-11.4
		c-2.4-2.8-30.4-37-18.9-81.8c-21.8,5.8-38,22.3-43.5,41.6c-21.8-10.7-48.5-21.6-80.9-32.3c17.5,88.7,47.4,113.1,78.2,122.9
		c-21.8,13.6-46.2,30.6-73.4,51.7c56.8,21.5,94.8,20.7,123.2,10c14.024-5.535,25.748-13.443,36.298-22.203
		c0.001,0.001,0.001,0.002,0.002,0.003c0.027,0.027,0.188-0.105,0.449-0.378C380.921,330.04,402.089,296,443.467,296
		c-0.6,9.6-4,19.2-10.3,27.2l3.3,2.6C452.668,305.4,451.168,275.5,433.467,257.4z"/>
	<g>
		<g>
			<path style="fill:#27348B;" d="M308.867,185.2c-21.8,5.8-38,22.3-43.5,41.6c28,13.8,48.1,27.3,62.4,40.2
				C325.367,264.2,297.367,230,308.867,185.2"/>
		</g>
	</g>
	<g>
		<g>
			<path style="fill:#253081;" d="M265.067,254.9l62.9,12.3c0,0-0.1-0.1-0.2-0.2c-14.3-12.9-34.4-26.4-62.4-40.2
				C262.767,235.8,262.567,245.4,265.067,254.9"/>
		</g>
	</g>
	<path style="fill:#27348B;" d="M339.068,278.4c-3.3-3.7-7-7.5-11.3-11.4c0.1,0.1,0.2,0.2,0.2,0.2l-62.9-12.3
		c-2.5-9.5-2.3-19.1,0.3-28.1c-21.8-10.7-48.5-21.6-80.9-32.3c17.5,88.7,47.4,113.1,78.2,122.9
		C292.667,298.6,317.867,286.2,339.068,278.4L339.068,278.4L339.068,278.4"/>
	<path style="fill:#1951A0;" d="M433.467,257.4c3.7-4.9,3.5-11.7-0.7-15.9l-8.4-8.4c-4.6,4.6-5.2,11.7-1.6,16.3l-7.3-7.3
		c-4.6-4.6-12.4-4.3-17.4,0.6l8.4,8.4c4.6,4.6,12.3,4.3,17.3-0.6l7.4,7.4c-4.7-3.6-11.7-3.1-16.3,1.6l8.4,8.4
		c3.7,3.7,9.5,4.3,14.2,1.7c4.5,7.9,6.5,17.1,6,26.2c-0.4-2.9-18.2-49-104.4-17.4c39.7,45.1,10.1,78.9,9.7,78.4
		c-9.9-16.8-22.7-24.2-36.8-28.5c-5.5,20.3-3.5,37.7,0.5,50.8c56.5-22.3,75.7-83.1,131-83.1l0,0c-0.6,9.6-4,19.2-10.3,27.2l3.3,2.6
		C452.668,305.4,451.168,275.5,433.467,257.4z"/>
	<path style="fill:#253081;" d="M339.068,278.4L339.068,278.4C338.967,278.4,338.967,278.4,339.068,278.4
		c-21.2,7.8-46.4,20.2-76.4,39c16.8,5.3,33.9,6.3,49.3,11l0,0c14.1,4.3,26.9,11.7,36.8,28.5
		C349.167,357.3,378.867,323.5,339.068,278.4z"/>
	<path style="fill:#27348B;" d="M338.667,614c-10.2-16.9-21.1-29.9-32.4-40c0,0-3.2,29.7-34.4,29.7c-23.1,0-37.7-18.2-37.7-49.6
		c0-5.2,0.4-10.1,1.2-14.5c-15.6-3.6-31.2-5.8-46.1-8.9c-1.5,7.4-2.3,15.2-2.3,23.4c0,55.2,35.4,92.6,85,92.6
		C301.367,646.7,324.867,634.6,338.667,614"/>
</g>
<g>
	<path style="fill:#164194;" d="M189.911,714.958v-20.167h6.407v19.736c0,4.343,2.451,6.407,6.02,6.407
		c3.526,0,5.934-2.15,5.934-6.407v-19.736h6.45v20.167c0,8.385-5.719,12.168-12.384,12.168
		C195.63,727.126,189.911,723.343,189.911,714.958z"/>
	<path style="fill:#164194;" d="M220.355,703.133h5.934v3.268c1.204-2.192,3.87-3.913,7.353-3.913c4.73,0,9.159,3.14,9.159,9.762
		v14.318h-6.063v-12.685c0-3.784-2.021-5.805-4.945-5.805c-3.182,0-5.375,2.407-5.375,5.934v12.556h-6.063V703.133z"/>
	<path style="fill:#164194;" d="M247.402,696.769c0-2.106,1.634-3.697,3.741-3.697c2.107,0,3.741,1.591,3.741,3.697
		c0,2.15-1.634,3.741-3.741,3.741C249.035,700.51,247.402,698.919,247.402,696.769z M248.09,726.568v-23.435h6.063v23.435H248.09z"
		/>
	<path style="fill:#164194;" d="M258.324,714.828c0-6.75,5.074-12.341,12.556-12.341c7.482,0,12.556,5.591,12.556,12.341
		c0,6.837-5.074,12.341-12.556,12.341C263.398,727.169,258.324,721.665,258.324,714.828z M277.372,714.828
		c0-3.697-2.838-6.664-6.493-6.664c-3.655,0-6.493,2.967-6.493,6.664c0,3.741,2.838,6.708,6.493,6.708
		C274.534,721.536,277.372,718.57,277.372,714.828z"/>
	<path style="fill:#164194;" d="M287.692,703.133h5.934v3.268c1.204-2.192,3.87-3.913,7.353-3.913c4.73,0,9.159,3.14,9.159,9.762
		v14.318h-6.063v-12.685c0-3.784-2.021-5.805-4.945-5.805c-3.182,0-5.375,2.407-5.375,5.934v12.556h-6.063V703.133z"/>
	<path style="fill:#164194;" d="M326.735,694.791h12.427c9.589,0,15.308,6.148,15.308,15.952c0,9.719-5.805,15.824-15.565,15.824
		h-12.169V694.791z M339.205,720.462c5.719,0,8.643-4.473,8.643-9.848c0-5.288-2.924-9.718-8.643-9.718h-6.106v19.565H339.205z"/>
	<path style="fill:#164194;" d="M381.602,716.979h-17.587c0.731,2.838,2.838,4.988,6.837,4.988c2.58,0,5.59-0.989,7.568-2.365
		l2.408,4.257c-2.236,1.634-5.891,3.225-10.234,3.225c-8.772,0-12.728-5.977-12.728-12.255c0-7.009,4.902-12.297,12.212-12.297
		c6.665,0,11.739,4.343,11.739,11.781C381.817,715.259,381.731,716.118,381.602,716.979z M364.015,712.464h11.911
		c-0.559-3.01-2.752-4.902-5.848-4.902C367.026,707.562,364.746,709.411,364.015,712.464z M372.487,699.65h-5.375l2.666-7.567h6.75
		L372.487,699.65z"/>
	<path style="fill:#164194;" d="M410.971,714.828c0,6.794-4.816,12.298-11.567,12.298c-3.268,0-5.633-1.419-7.353-3.268V736.2
		h-6.063v-33.066h6.02v2.881c1.72-1.978,4.128-3.482,7.439-3.482C406.155,702.532,410.971,708.035,410.971,714.828z
		 M404.865,714.872c0-3.698-2.58-6.708-6.493-6.708c-3.87,0-6.45,3.01-6.45,6.708c0,3.697,2.58,6.707,6.45,6.707
		C402.285,721.579,404.865,718.57,404.865,714.872z"/>
	<path style="fill:#164194;" d="M438.878,703.133v23.435h-5.763v-2.709c-1.72,1.849-4.171,3.268-7.481,3.268
		c-6.794,0-11.609-5.418-11.609-12.384c0-7.052,4.944-12.211,11.609-12.211c3.311,0,5.719,1.462,7.481,3.396v-2.795H438.878z
		 M433.202,714.828c0-3.654-2.709-6.75-6.579-6.75c-3.913,0-6.536,3.096-6.536,6.75c0,3.741,2.666,6.794,6.536,6.794
		S433.202,718.527,433.202,714.828z"/>
	<path style="fill:#164194;" d="M444.338,703.133h5.805v3.139c1.462-2.58,3.698-3.784,6.45-3.784c0.86,0,1.892,0.173,2.838,0.517
		l-0.516,5.805c-0.946-0.301-1.893-0.473-2.795-0.473c-3.183,0-5.72,1.978-5.72,7.095v11.137h-6.062V703.133z"/>
	<path style="fill:#164194;" d="M479.941,725.192c-1.849,1.247-4.515,1.935-6.923,1.935c-5.375,0-8.17-3.182-8.17-9.244v-9.675
		h-3.826v-5.074h3.869v-8.299h6.021v8.299h7.739v5.074h-7.739v9.287c0,2.709,1.032,4.128,3.311,4.128
		c1.505,0,2.752-0.559,3.913-1.203L479.941,725.192z"/>
	<path style="fill:#164194;" d="M505.011,716.979h-17.586c0.73,2.838,2.838,4.988,6.837,4.988c2.579,0,5.59-0.989,7.567-2.365
		l2.408,4.257c-2.236,1.634-5.891,3.225-10.234,3.225c-8.771,0-12.728-5.977-12.728-12.255c0-7.009,4.902-12.297,12.212-12.297
		c6.665,0,11.739,4.343,11.739,11.781C505.226,715.259,505.139,716.118,505.011,716.979z M487.425,712.464h11.91
		c-0.559-3.01-2.752-4.902-5.848-4.902C490.434,707.562,488.155,709.411,487.425,712.464z"/>
	<path style="fill:#164194;" d="M547.28,712.421v14.146h-6.063v-13.028c0-3.698-1.978-5.461-4.687-5.461
		c-2.967,0-5.16,2.149-5.16,5.633v12.856h-6.062v-12.985c0-3.526-1.893-5.504-4.73-5.504c-2.881,0-5.117,2.063-5.117,5.676v12.813
		h-6.062v-23.435h5.934v3.354c1.333-2.493,4.128-4.042,7.139-3.999c2.795,0,5.547,1.29,6.879,4.129
		c1.721-2.623,4.945-4.129,8.386-4.129C543.065,702.488,547.28,705.971,547.28,712.421z"/>
	<path style="fill:#164194;" d="M575.014,716.979h-17.586c0.73,2.838,2.838,4.988,6.837,4.988c2.579,0,5.59-0.989,7.567-2.365
		l2.408,4.257c-2.236,1.634-5.891,3.225-10.234,3.225c-8.771,0-12.728-5.977-12.728-12.255c0-7.009,4.902-12.297,12.212-12.297
		c6.665,0,11.739,4.343,11.739,11.781C575.23,715.259,575.143,716.118,575.014,716.979z M557.429,712.464h11.91
		c-0.559-3.01-2.752-4.902-5.848-4.902C560.438,707.562,558.159,709.411,557.429,712.464z"/>
	<path style="fill:#164194;" d="M579.401,703.133h5.934v3.268c1.204-2.192,3.87-3.913,7.354-3.913c4.729,0,9.158,3.14,9.158,9.762
		v14.318h-6.062v-12.685c0-3.784-2.021-5.805-4.945-5.805c-3.182,0-5.375,2.407-5.375,5.934v12.556h-6.062V703.133z"/>
	<path style="fill:#164194;" d="M623.733,725.192c-1.849,1.247-4.515,1.935-6.923,1.935c-5.375,0-8.17-3.182-8.17-9.244v-9.675
		h-3.826v-5.074h3.869v-8.299h6.021v8.299h7.739v5.074h-7.739v9.287c0,2.709,1.031,4.128,3.311,4.128
		c1.505,0,2.752-0.559,3.913-1.203L623.733,725.192z"/>
	<path style="fill:#164194;" d="M649.878,703.133v23.435h-5.762v-2.709c-1.72,1.849-4.171,3.268-7.481,3.268
		c-6.794,0-11.61-5.418-11.61-12.384c0-7.052,4.945-12.211,11.61-12.211c3.311,0,5.719,1.462,7.481,3.396v-2.795H649.878z
		 M644.202,714.828c0-3.654-2.709-6.75-6.579-6.75c-3.913,0-6.536,3.096-6.536,6.75c0,3.741,2.666,6.794,6.536,6.794
		S644.202,718.527,644.202,714.828z"/>
	<path style="fill:#164194;" d="M655.339,726.568v-32.68h6.062v32.68H655.339z"/>
	<path style="fill:#164194;" d="M689.393,716.979h-17.586c0.73,2.838,2.838,4.988,6.837,4.988c2.579,0,5.59-0.989,7.567-2.365
		l2.408,4.257c-2.236,1.634-5.891,3.225-10.234,3.225c-8.771,0-12.728-5.977-12.728-12.255c0-7.009,4.902-12.297,12.212-12.297
		c6.665,0,11.739,4.343,11.739,11.781C689.609,715.259,689.522,716.118,689.393,716.979z M671.807,712.464h11.91
		c-0.559-3.01-2.752-4.902-5.848-4.902C674.817,707.562,672.538,709.411,671.807,712.464z"/>
	<path style="fill:#2A6AB2;" d="M723.278,694.791v4.386l-11.353,27.391h-6.664l10.922-25.929h-13.631v-5.848H723.278z"/>
	<path style="fill:#2A6AB2;" d="M747.658,716.334c0,6.062-4.601,10.749-11.867,10.749c-3.655,0-7.439-1.203-10.664-3.525
		l2.537-5.074c2.709,1.849,5.504,2.752,7.825,2.752c3.698,0,5.763-2.279,5.763-4.901c0-2.752-2.279-4.773-5.375-4.773
		c-1.85,0-3.741,0.688-5.246,2.107l-3.698-2.968l1.72-15.909h16.813v5.848h-12.083l-0.688,6.235
		c1.204-0.474,2.666-0.774,4.257-0.774C742.843,706.1,747.658,710.142,747.658,716.334z"/>
</g>
<g>
	<path style="fill:#FFFFFF;" d="M189.911,1708.157v-20.168h6.407v19.736c0,4.344,2.451,6.408,6.02,6.408
		c3.526,0,5.934-2.15,5.934-6.408v-19.736h6.45v20.168c0,8.385-5.719,12.168-12.384,12.168
		C195.63,1720.325,189.911,1716.542,189.911,1708.157z"/>
	<path style="fill:#FFFFFF;" d="M220.356,1696.331h5.934v3.268c1.204-2.191,3.87-3.912,7.353-3.912c4.73,0,9.159,3.139,9.159,9.762
		v14.318h-6.063v-12.686c0-3.783-2.021-5.805-4.945-5.805c-3.182,0-5.375,2.408-5.375,5.934v12.557h-6.063V1696.331z"/>
	<path style="fill:#FFFFFF;" d="M247.402,1689.968c0-2.107,1.634-3.697,3.741-3.697c2.107,0,3.741,1.59,3.741,3.697
		c0,2.15-1.634,3.74-3.741,3.74C249.036,1693.708,247.402,1692.118,247.402,1689.968z M248.09,1719.767v-23.436h6.063v23.436H248.09
		z"/>
	<path style="fill:#FFFFFF;" d="M258.324,1708.027c0-6.75,5.074-12.34,12.556-12.34c7.482,0,12.556,5.59,12.556,12.34
		c0,6.838-5.074,12.342-12.556,12.342C263.398,1720.368,258.324,1714.865,258.324,1708.027z M277.373,1708.027
		c0-3.697-2.838-6.664-6.493-6.664c-3.655,0-6.493,2.967-6.493,6.664c0,3.742,2.838,6.709,6.493,6.709
		C274.535,1714.736,277.373,1711.769,277.373,1708.027z"/>
	<path style="fill:#FFFFFF;" d="M287.693,1696.331h5.934v3.268c1.204-2.191,3.87-3.912,7.353-3.912c4.73,0,9.159,3.139,9.159,9.762
		v14.318h-6.063v-12.686c0-3.783-2.021-5.805-4.945-5.805c-3.182,0-5.375,2.408-5.375,5.934v12.557h-6.063V1696.331z"/>
	<path style="fill:#FFFFFF;" d="M326.736,1687.99h12.427c9.589,0,15.308,6.148,15.308,15.953c0,9.719-5.805,15.824-15.565,15.824
		h-12.169V1687.99z M339.205,1713.661c5.719,0,8.643-4.473,8.643-9.848c0-5.289-2.924-9.719-8.643-9.719h-6.106v19.566H339.205z"/>
	<path style="fill:#FFFFFF;" d="M381.603,1710.177h-17.587c0.731,2.838,2.838,4.988,6.837,4.988c2.58,0,5.59-0.988,7.568-2.365
		l2.408,4.258c-2.236,1.633-5.891,3.225-10.234,3.225c-8.772,0-12.728-5.977-12.728-12.256c0-7.008,4.902-12.297,12.212-12.297
		c6.665,0,11.739,4.344,11.739,11.781C381.818,1708.458,381.732,1709.318,381.603,1710.177z M364.016,1705.663h11.911
		c-0.559-3.01-2.752-4.902-5.848-4.902C367.026,1700.761,364.747,1702.611,364.016,1705.663z M372.487,1692.849h-5.375l2.666-7.568
		h6.75L372.487,1692.849z"/>
	<path style="fill:#FFFFFF;" d="M410.971,1708.027c0,6.795-4.816,12.299-11.567,12.299c-3.268,0-5.633-1.42-7.353-3.268v12.34
		h-6.063v-33.066h6.02v2.881c1.72-1.977,4.128-3.482,7.439-3.482C406.155,1695.73,410.971,1701.234,410.971,1708.027z
		 M404.865,1708.072c0-3.699-2.58-6.709-6.493-6.709c-3.87,0-6.45,3.01-6.45,6.709c0,3.697,2.58,6.707,6.45,6.707
		C402.285,1714.779,404.865,1711.769,404.865,1708.072z"/>
	<path style="fill:#FFFFFF;" d="M438.879,1696.331v23.436h-5.763v-2.709c-1.72,1.848-4.171,3.268-7.481,3.268
		c-6.794,0-11.609-5.418-11.609-12.385c0-7.051,4.944-12.211,11.609-12.211c3.311,0,5.719,1.463,7.481,3.396v-2.795H438.879z
		 M433.203,1708.027c0-3.654-2.709-6.75-6.579-6.75c-3.913,0-6.536,3.096-6.536,6.75c0,3.742,2.666,6.795,6.536,6.795
		S433.203,1711.726,433.203,1708.027z"/>
	<path style="fill:#FFFFFF;" d="M444.339,1696.331h5.805v3.139c1.462-2.58,3.698-3.783,6.45-3.783c0.86,0,1.892,0.172,2.838,0.516
		l-0.516,5.805c-0.946-0.301-1.893-0.473-2.795-0.473c-3.183,0-5.72,1.979-5.72,7.096v11.137h-6.062V1696.331z"/>
	<path style="fill:#FFFFFF;" d="M479.941,1718.39c-1.849,1.248-4.515,1.936-6.923,1.936c-5.375,0-8.17-3.182-8.17-9.244v-9.676
		h-3.826v-5.074h3.869v-8.299h6.021v8.299h7.739v5.074h-7.739v9.287c0,2.709,1.032,4.129,3.311,4.129
		c1.505,0,2.752-0.559,3.913-1.203L479.941,1718.39z"/>
	<path style="fill:#FFFFFF;" d="M505.011,1710.177h-17.586c0.73,2.838,2.838,4.988,6.837,4.988c2.579,0,5.59-0.988,7.567-2.365
		l2.408,4.258c-2.236,1.633-5.891,3.225-10.234,3.225c-8.771,0-12.728-5.977-12.728-12.256c0-7.008,4.902-12.297,12.212-12.297
		c6.665,0,11.739,4.344,11.739,11.781C505.226,1708.458,505.139,1709.318,505.011,1710.177z M487.425,1705.663h11.91
		c-0.559-3.01-2.752-4.902-5.848-4.902C490.434,1700.761,488.155,1702.611,487.425,1705.663z"/>
	<path style="fill:#FFFFFF;" d="M547.28,1705.62v14.146h-6.063v-13.029c0-3.697-1.978-5.461-4.687-5.461
		c-2.967,0-5.16,2.15-5.16,5.633v12.857h-6.062v-12.986c0-3.525-1.893-5.504-4.73-5.504c-2.881,0-5.117,2.064-5.117,5.676v12.814
		h-6.062v-23.436h5.934v3.354c1.333-2.492,4.128-4.041,7.139-3.998c2.795,0,5.547,1.289,6.879,4.129
		c1.721-2.623,4.945-4.129,8.386-4.129C543.065,1695.687,547.28,1699.169,547.28,1705.62z"/>
	<path style="fill:#FFFFFF;" d="M575.014,1710.177h-17.586c0.73,2.838,2.838,4.988,6.837,4.988c2.579,0,5.59-0.988,7.567-2.365
		l2.408,4.258c-2.236,1.633-5.891,3.225-10.234,3.225c-8.771,0-12.728-5.977-12.728-12.256c0-7.008,4.902-12.297,12.212-12.297
		c6.665,0,11.739,4.344,11.739,11.781C575.23,1708.458,575.143,1709.318,575.014,1710.177z M557.429,1705.663h11.91
		c-0.559-3.01-2.752-4.902-5.848-4.902C560.438,1700.761,558.159,1702.611,557.429,1705.663z"/>
	<path style="fill:#FFFFFF;" d="M579.401,1696.331h5.934v3.268c1.204-2.191,3.87-3.912,7.354-3.912c4.729,0,9.158,3.139,9.158,9.762
		v14.318h-6.062v-12.686c0-3.783-2.021-5.805-4.945-5.805c-3.182,0-5.375,2.408-5.375,5.934v12.557h-6.062V1696.331z"/>
	<path style="fill:#FFFFFF;" d="M623.733,1718.39c-1.849,1.248-4.515,1.936-6.923,1.936c-5.375,0-8.17-3.182-8.17-9.244v-9.676
		h-3.826v-5.074h3.869v-8.299h6.021v8.299h7.739v5.074h-7.739v9.287c0,2.709,1.031,4.129,3.311,4.129
		c1.505,0,2.752-0.559,3.913-1.203L623.733,1718.39z"/>
	<path style="fill:#FFFFFF;" d="M649.878,1696.331v23.436h-5.762v-2.709c-1.72,1.848-4.171,3.268-7.481,3.268
		c-6.794,0-11.61-5.418-11.61-12.385c0-7.051,4.945-12.211,11.61-12.211c3.311,0,5.719,1.463,7.481,3.396v-2.795H649.878z
		 M644.202,1708.027c0-3.654-2.709-6.75-6.579-6.75c-3.913,0-6.536,3.096-6.536,6.75c0,3.742,2.666,6.795,6.536,6.795
		S644.202,1711.726,644.202,1708.027z"/>
	<path style="fill:#FFFFFF;" d="M655.339,1719.767v-32.68h6.062v32.68H655.339z"/>
	<path style="fill:#FFFFFF;" d="M689.393,1710.177h-17.586c0.73,2.838,2.838,4.988,6.837,4.988c2.579,0,5.59-0.988,7.567-2.365
		l2.408,4.258c-2.236,1.633-5.891,3.225-10.234,3.225c-8.771,0-12.728-5.977-12.728-12.256c0-7.008,4.902-12.297,12.212-12.297
		c6.665,0,11.739,4.344,11.739,11.781C689.609,1708.458,689.522,1709.318,689.393,1710.177z M671.807,1705.663h11.91
		c-0.559-3.01-2.752-4.902-5.848-4.902C674.817,1700.761,672.538,1702.611,671.807,1705.663z"/>
	<path style="fill:#FFFFFF;" d="M723.278,1687.99v4.387l-11.353,27.391h-6.664l10.922-25.93h-13.631v-5.848H723.278z"/>
	<path style="fill:#FFFFFF;" d="M747.658,1709.532c0,6.062-4.601,10.75-11.867,10.75c-3.655,0-7.439-1.203-10.664-3.525l2.537-5.074
		c2.709,1.848,5.504,2.752,7.825,2.752c3.698,0,5.763-2.279,5.763-4.902c0-2.752-2.279-4.773-5.375-4.773
		c-1.85,0-3.741,0.689-5.246,2.107l-3.698-2.967l1.72-15.91h16.813v5.848h-12.083l-0.688,6.236c1.204-0.475,2.666-0.775,4.257-0.775
		C742.843,1699.298,747.658,1703.341,747.658,1709.532z"/>
</g>
<g>
	<path style="fill:#FFFFFF;" d="M353.967,1409.897v-3.1h-5.7v-5.3h-3.4v5.3h-3.5v3.1h3.5v14.8c0,3.9,1.5,5.3,5.7,5.3h2.2v-3.2h-1.9
		c-1.9,0-2.5-0.6-2.5-2.1v-14.9h5.6V1409.897z M328.267,1427.497c-2.9,0-4.5-1.3-4.5-3.6c0-2,1.6-3.2,5.7-4.2
		c3.1-0.8,4.6-1.6,5.1-2.7h0.1v5.2C334.667,1425.297,331.967,1427.497,328.267,1427.497 M328.068,1430.697c2.9,0,5.4-1.2,6.7-3.1
		h0.1v2.5h3.2v-16.3c0-4.6-3.2-7.5-8.4-7.5c-4.9,0-8.5,2.9-9.3,7.4l3.5,0.7c0.6-3.1,2.8-5,5.8-5c2.9,0,4.8,1.4,4.8,3.5
		c0,1.9-1.4,2.8-5.9,3.9c-5.8,1.4-8.2,3.4-8.2,7.4C320.367,1428.197,323.367,1430.697,328.068,1430.697 M306.567,1430.697
		c5.3,0,9.2-3.3,10.1-8.5l-3.3-0.7c-0.7,3.8-3.2,6-6.8,6c-4.4,0-7.3-3.6-7.3-9.1s2.9-9.1,7.3-9.1c3.6,0,6.1,2.1,6.8,6l3.3-0.7
		c-0.9-5.2-4.8-8.5-10.1-8.5c-6.4,0-10.7,5-10.7,12.3C295.767,1425.797,300.167,1430.697,306.567,1430.697 M287.667,1430.097h3.4
		v-23.2h-3.4V1430.097z M287.467,1402.797h3.9v-3.8h-3.9V1402.797z M271.667,1427.497c-4.4,0-7.2-3.6-7.2-9.1s2.8-9.1,7-9.1
		c3.9,0,6.9,3,6.9,6.8v4.5C278.367,1424.497,275.367,1427.497,271.667,1427.497 M271.467,1430.697c2.8,0,5.4-1.1,7-3l0,0v2.3h3.3
		v-32h-3.4v11.2h-0.1c-1.5-1.8-3.9-3.1-6.8-3.1c-6.1,0-10.4,5-10.4,12.3S265.367,1430.697,271.467,1430.697 M237.567,1430.097h3.4
		v-14.6c0-3.6,2.5-6.1,6.1-6.1c3.6,0,5.8,2.3,5.8,6.1v14.6h3.4v-15c0-5.4-3.4-8.9-8.8-8.9c-2.5,0-5.1,1.1-6.5,2.8h-0.1v-2.1h-3.3
		V1430.097z M216.567,1439.897h3.5l13.9-33.1h-3.5l-7.1,17.3h-0.1l-7.1-17.3h-3.6l8.9,21.3L216.567,1439.897z M199.567,1430.697
		c6.4,0,10.7-3.4,10.7-8.4c0-4.8-2.9-7.5-10.9-10.1c-5.6-1.8-7.4-3-7.4-5.4c0-2.8,2.5-4.7,6.2-4.7c4,0,6.7,2.2,7.6,6.3l3.5-0.7
		c-1-5.5-5.3-8.9-11.1-8.9c-5.8,0-9.8,3.3-9.8,8.1c0,4.1,2.5,6.3,9.8,8.7c6.4,2,8.5,3.7,8.5,6.8c0,3-2.8,5-7.1,5
		c-5.6,0-8.5-2.6-9.1-8l-3.6,0.6C187.567,1426.897,192.067,1430.697,199.567,1430.697"/>
	<path style="fill:#A0B2D3;" d="M271.868,1497.697c18.8,0,30.7,10.6,34.4,29.7l44.6-7.9c-6.3-39.6-36.4-64.8-79-64.8
		c-42.2,0-74.1,27.1-82.7,69.2c0.032,0.007,0.064,0.013,0.096,0.019c-1.497,7.394-2.296,15.188-2.296,23.381
		c0,55.2,35.4,92.6,85,92.6c29.4,0,52.9-12.1,66.7-32.7c6.1-9.1,10.3-19.9,12.2-32.1l-44.6-7.9c0,0-3.2,29.7-34.4,29.7
		c-23.1,0-37.7-18.2-37.7-49.6c0-5.2,0.4-10.1,1.2-14.5C239.267,1510.397,252.568,1497.697,271.868,1497.697z"/>
	<path style="fill:#A0B2D3;" d="M444.967,1434.197h26.8v-42h-33.1c-34.7,0-53.9,18.5-53.9,49.6v17.8h-34v41.6h34v7.7v126h47.3v-32.5
		v-101.2h30.3v-41.6h-30.3v-13.2C432.068,1438.497,436.368,1434.197,444.967,1434.197z"/>
	<path style="fill:#2A6AB2;" d="M587.068,1459.697l-82.5-0.1c26,0,38.7-12.9,38.7-36.7v-7.2h-46.8v44h-24.4v41.6h24.4
		c0.001,0,0.003,0,0.004,0c0,0.034-0.004,0.066-0.004,0.1v77c0,36.2,13.6,52.7,47.1,55.9c4.2,0.4,8.6,0.6,13.4,0.6h23.8v0v-45.3h0
		h-19.2c-13.9,0-17.8-3.3-17.8-14.2v-74h43.3v-20.5c-0.059-0.01-0.115-0.019-0.174-0.029c0.057-0.024,0.117-0.047,0.174-0.071
		V1459.697z"/>
	<path style="fill:#A0B2D3;" d="M706.767,1567.197c-2.5,14.3-9.6,23.8-21.2,27.7c-3.9,1.3-8.3,2-13.2,2c-19.1,0-32.3-12.3-36.3-34.2
		c-0.013,0.003-0.025,0.007-0.038,0.011c0.013-0.037,0.025-0.073,0.038-0.111c-0.9-4.7-1.3-9.8-1.3-15.3c0-31.4,14.5-49.6,37.7-49.6
		c18.8,0,30.7,10.6,34.4,29.7l44.6-7.9c-6.3-39.7-36.4-64.8-79-64.8c-34.6,0-62.3,18.3-75.9,48.1v0c-5.8,12.9-9.1,27.8-9.1,44.5
		c0,12.5,1.8,24.1,5.2,34.5c11.6,35.7,41.4,58.1,79.7,58.1c29.1,0,52.4-11.7,66.2-31.8h0c6.4-9.3,10.8-20.4,12.8-33
		L706.767,1567.197z"/>
	<path style="fill:#D8DFED;" d="M271.867,1454.697c-42.2,0-74.1,27.1-82.7,69.2c15,3.1,30.5,5.3,46.2,8.9
		c3.9-22.4,17.2-35.1,36.5-35.1c18.8,0,30.7,10.6,34.4,29.7l44.6-7.9C344.568,1479.897,314.467,1454.697,271.867,1454.697"/>
	<path style="fill:#FFFFFF;" d="M444.967,1434.197h26.8v-42h-33.1c-34.7,0-53.9,18.5-53.9,49.6v17.8h-34v41.6h34l0,0h47.3l0,0h30.3
		v-41.6h-30.3v-13.2C432.068,1438.497,436.367,1434.197,444.967,1434.197"/>
	<path style="fill:#EBEFF6;" d="M432.068,1501.397h-47.3v7.5c13.7,42.6,29.8,72.4,47.3,93.5V1501.397z"/>
	<path style="fill:#D9DFED;" d="M587.068,1459.697l-82.5-0.1c26,0,38.7-12.9,38.7-36.7v-7.2h-46.8v44h-24.4v41.6h24.4l0,0
		c32.6-3.2,65-9.6,90.6-20.5V1459.697z"/>
	<path style="fill:#EBEFF6;" d="M496.467,1501.397v77c0,36.2,13.6,52.7,47.1,55.9c11.6-19.5,24.1-33.9,37.2-44.7l0,0h-19.2
		c-13.9,0-17.8-3.3-17.8-14.2v-74h43.3v-20.5C561.467,1491.697,529.068,1498.197,496.467,1501.397"/>
	<path style="fill:#F2F5F9;" d="M580.767,1634.897v-45.3c-13,10.8-25.6,25.2-37.2,44.7c4.2,0.4,8.6,0.6,13.4,0.6H580.767
		L580.767,1634.897z"/>
	<path style="fill:#F8F9FC;" d="M685.568,1594.897c17.6,6.8,35.5,10.1,53,13.2c6.4-9.3,10.8-20.4,12.8-33l-44.6-7.9
		C704.267,1581.497,697.167,1590.997,685.568,1594.897"/>
	<path style="fill:#EBEFF6;" d="M636.068,1562.597c-0.9-4.7-1.3-9.8-1.3-15.3c0-31.4,14.5-49.6,37.7-49.6
		c18.8,0,30.7,10.6,34.4,29.7l44.6-7.9c-6.3-39.7-36.4-64.8-79-64.8c-34.6,0-62.3,18.3-75.9,48.1
		C608.568,1529.097,621.867,1548.297,636.068,1562.597"/>
	<g>
		<g>
			<path style="fill:#D8DFED;" d="M592.667,1581.797c11.6,35.7,41.4,58.1,79.7,58.1c29.1,0,52.4-11.7,66.2-31.8
				c-17.4-3.1-35.3-6.4-53-13.2c-3.9,1.3-8.3,2-13.2,2c-19.1,0-32.3-12.3-36.3-34.2
				C621.367,1566.697,606.767,1572.497,592.667,1581.797"/>
		</g>
	</g>
	<path style="fill:#CFD8EA;" d="M433.467,1250.597c3.7-4.9,3.5-11.7-0.7-15.9l-8.4-8.4c-4.6,4.6-5.2,11.7-1.6,16.3l-7.3-7.3
		c-4.6-4.6-12.4-4.3-17.4,0.6l8.4,8.4c4.6,4.6,12.3,4.3,17.3-0.6l7.4,7.4c-4.7-3.6-11.7-3.1-16.3,1.6l8.4,8.4
		c3.7,3.7,9.5,4.3,14.2,1.7c4.5,7.9,6.5,17.1,6,26.2c-0.4-2.9-18.2-49-104.4-17.4c-3.3-3.7-7-7.5-11.3-11.4
		c-2.4-2.8-30.4-37-18.9-81.8c-21.8,5.8-38,22.3-43.5,41.6c-21.8-10.7-48.5-21.6-80.9-32.3c17.5,88.7,47.4,113.1,78.2,122.9
		c-21.8,13.6-46.2,30.6-73.4,51.7c56.8,21.5,94.8,20.7,123.2,10c14.024-5.535,25.748-13.443,36.298-22.203
		c0.001,0.001,0.001,0.002,0.002,0.003c0.027,0.027,0.188-0.105,0.449-0.378c31.705-26.482,52.873-60.522,94.251-60.522
		c-0.6,9.6-4,19.2-10.3,27.2l3.3,2.6C452.668,1298.597,451.168,1268.697,433.467,1250.597z"/>
	<g>
		<g>
			<path style="fill:#FFFFFF;" d="M308.867,1178.397c-21.8,5.8-38,22.3-43.5,41.6c28,13.8,48.1,27.3,62.4,40.2
				C325.367,1257.397,297.367,1223.197,308.867,1178.397"/>
		</g>
	</g>
	<g>
		<g>
			<path style="fill:#FFFFFF;" d="M265.067,1248.097l62.9,12.3c0,0-0.1-0.1-0.2-0.2c-14.3-12.9-34.4-26.4-62.4-40.2
				C262.767,1228.997,262.567,1238.597,265.067,1248.097"/>
		</g>
	</g>
	<path style="fill:#CFD8EA;" d="M339.068,1271.597c-3.3-3.7-7-7.5-11.3-11.4c0.1,0.1,0.2,0.2,0.2,0.2l-62.9-12.3
		c-2.5-9.5-2.3-19.1,0.3-28.1c-21.8-10.7-48.5-21.6-80.9-32.3c17.5,88.7,47.4,113.1,78.2,122.9
		C292.667,1291.797,317.867,1279.397,339.068,1271.597L339.068,1271.597L339.068,1271.597"/>
	<path style="fill:#CFD8EA;" d="M433.467,1250.597c3.7-4.9,3.5-11.7-0.7-15.9l-8.4-8.4c-4.6,4.6-5.2,11.7-1.6,16.3l-7.3-7.3
		c-4.6-4.6-12.4-4.3-17.4,0.6l8.4,8.4c4.6,4.6,12.3,4.3,17.3-0.6l7.4,7.4c-4.7-3.6-11.7-3.1-16.3,1.6l8.4,8.4
		c3.7,3.7,9.5,4.3,14.2,1.7c4.5,7.9,6.5,17.1,6,26.2c-0.4-2.9-18.2-49-104.4-17.4c39.7,45.1,10.1,78.9,9.7,78.4
		c-9.9-16.8-22.7-24.2-36.8-28.5c-5.5,20.3-3.5,37.7,0.5,50.8c56.5-22.3,75.7-83.1,131-83.1l0,0c-0.6,9.6-4,19.2-10.3,27.2l3.3,2.6
		C452.668,1298.597,451.168,1268.697,433.467,1250.597z"/>
	<path style="fill:#F5F7FA;" d="M339.068,1271.597L339.068,1271.597C338.967,1271.597,338.967,1271.597,339.068,1271.597
		c-21.2,7.8-46.4,20.2-76.4,39c16.8,5.3,33.9,6.3,49.3,11l0,0c14.1,4.3,26.9,11.7,36.8,28.5
		C349.167,1350.497,378.867,1316.697,339.068,1271.597z"/>
	<path style="fill:#EBEFF6;" d="M338.667,1607.197c-10.2-16.9-21.1-29.9-32.4-40c0,0-3.2,29.7-34.4,29.7
		c-23.1,0-37.7-18.2-37.7-49.6c0-5.2,0.4-10.1,1.2-14.5c-15.6-3.6-31.2-5.8-46.1-8.9c-1.5,7.4-2.3,15.2-2.3,23.4
		c0,55.2,35.4,92.6,85,92.6C301.367,1639.897,324.867,1627.797,338.667,1607.197"/>
	<path style="fill:#FFFFFF;" d="M443.467,1289.197L443.467,1289.197c-0.6,9.6-4,19.2-10.3,27.2l3.3,2.6c16.2-20.4,14.7-50.3-3-68.4
		c3.7-4.9,3.5-11.7-0.7-15.9l-8.4-8.4c-4.6,4.6-5.2,11.7-1.6,16.3l-7.3-7.3c-4.6-4.6-12.4-4.3-17.4,0.6l8.4,8.4
		c4.6,4.6,12.3,4.3,17.3-0.6l7.4,7.4c-4.7-3.6-11.7-3.1-16.3,1.6l8.4,8.4c3.7,3.7,9.5,4.3,14.2,1.7c4.5,7.9,6.5,17.1,6,26.2"/>
</g>
<g>
	<path style="fill:#1951A0;" d="M1364.235,416.7v-3.1h-5.7v-5.3h-3.4v5.3h-3.5v3.1h3.5v14.8c0,3.9,1.5,5.3,5.7,5.3h2.2v-3.2h-1.9
		c-1.9,0-2.5-0.6-2.5-2.1v-14.9h5.6V416.7z M1338.535,434.3c-2.9,0-4.5-1.3-4.5-3.6c0-2,1.6-3.2,5.7-4.2c3.1-0.8,4.6-1.6,5.1-2.7
		h0.1v5.2C1344.935,432.1,1342.235,434.3,1338.535,434.3 M1338.335,437.5c2.9,0,5.4-1.2,6.7-3.1h0.1v2.5h3.2v-16.3
		c0-4.6-3.2-7.5-8.4-7.5c-4.9,0-8.5,2.9-9.3,7.4l3.5,0.7c0.6-3.1,2.8-5,5.8-5c2.9,0,4.8,1.4,4.8,3.5c0,1.9-1.4,2.8-5.9,3.9
		c-5.8,1.4-8.2,3.4-8.2,7.4C1330.635,435,1333.635,437.5,1338.335,437.5 M1316.835,437.5c5.3,0,9.2-3.3,10.1-8.5l-3.3-0.7
		c-0.7,3.8-3.2,6-6.8,6c-4.4,0-7.3-3.6-7.3-9.1s2.9-9.1,7.3-9.1c3.6,0,6.1,2.1,6.8,6l3.3-0.7c-0.9-5.2-4.8-8.5-10.1-8.5
		c-6.4,0-10.7,5-10.7,12.3C1306.035,432.6,1310.435,437.5,1316.835,437.5 M1297.935,436.9h3.4v-23.2h-3.4V436.9z M1297.735,409.6
		h3.9v-3.8h-3.9V409.6z M1281.935,434.3c-4.4,0-7.2-3.6-7.2-9.1s2.8-9.1,7-9.1c3.9,0,6.9,3,6.9,6.8v4.5
		C1288.635,431.3,1285.635,434.3,1281.935,434.3 M1281.735,437.5c2.8,0,5.4-1.1,7-3l0,0v2.3h3.3v-32h-3.4V416h-0.1
		c-1.5-1.8-3.9-3.1-6.8-3.1c-6.1,0-10.4,5-10.4,12.3C1271.335,432.5,1275.635,437.5,1281.735,437.5 M1247.835,436.9h3.4v-14.6
		c0-3.6,2.5-6.1,6.1-6.1s5.8,2.3,5.8,6.1v14.6h3.4v-15c0-5.4-3.4-8.9-8.8-8.9c-2.5,0-5.1,1.1-6.5,2.8h-0.1v-2.1h-3.3
		C1247.835,413.7,1247.835,436.9,1247.835,436.9z M1226.835,446.7h3.5l13.9-33.1h-3.5l-7.1,17.3h-0.1l-7.1-17.3h-3.6l8.9,21.3
		L1226.835,446.7z M1209.835,437.5c6.4,0,10.7-3.4,10.7-8.4c0-4.8-2.9-7.5-10.9-10.1c-5.6-1.8-7.4-3-7.4-5.4c0-2.8,2.5-4.7,6.2-4.7
		c4,0,6.7,2.2,7.6,6.3l3.5-0.7c-1-5.5-5.3-8.9-11.1-8.9c-5.8,0-9.8,3.3-9.8,8.1c0,4.1,2.5,6.3,9.8,8.7c6.4,2,8.5,3.7,8.5,6.8
		c0,3-2.8,5-7.1,5c-5.6,0-8.5-2.6-9.1-8l-3.6,0.6C1197.835,433.7,1202.335,437.5,1209.835,437.5"/>
	<g>
		<path style="fill:#2A6AB2;" d="M1282.135,504.5c18.8,0,30.7,10.6,34.4,29.7l44.6-7.9c-6.3-39.6-36.4-64.8-79-64.8
			c-42.2,0-74.1,27.1-82.7,69.2c0.032,0.007,0.064,0.013,0.096,0.019c-1.497,7.394-2.296,15.188-2.296,23.381
			c0,55.2,35.4,92.6,85,92.6c29.4,0,52.9-12.1,66.7-32.7c6.1-9.1,10.3-19.9,12.2-32.1l-44.6-7.9c0,0-3.2,29.7-34.4,29.7
			c-23.1,0-37.7-18.2-37.7-49.6c0-5.2,0.4-10.1,1.2-14.5C1249.535,517.2,1262.835,504.5,1282.135,504.5z"/>
		<path style="fill:#2A6AB2;" d="M1455.235,441h26.8v-42h-33.1c-34.7,0-53.9,18.5-53.9,49.6v17.8h-34V508h34v7.7v126h47.3v-32.5V508
			h30.3v-41.6h-30.3v-13.2C1442.335,445.3,1446.635,441,1455.235,441z"/>
		<path style="fill:#2A6AB2;" d="M1597.335,466.5l-82.5-0.1c26,0,38.7-12.9,38.7-36.7v-7.2h-46.8v44h-24.4v41.6h24.4
			c0.001,0,0.003,0,0.004,0c0,0.034-0.004,0.066-0.004,0.1v77c0,36.2,13.6,52.7,47.1,55.9c4.2,0.4,8.6,0.6,13.4,0.6h23.8v0v-45.3
			l0,0h-19.2c-13.9,0-17.8-3.3-17.8-14.2v-74h43.3v-20.5c-0.058-0.01-0.115-0.019-0.173-0.029c0.057-0.024,0.117-0.047,0.173-0.071
			V466.5z"/>
		<path style="fill:#2A6AB2;" d="M1717.035,574c-2.5,14.3-9.6,23.8-21.2,27.7c-3.9,1.3-8.3,2-13.2,2c-19.1,0-32.3-12.3-36.3-34.2
			c-0.013,0.003-0.025,0.007-0.038,0.011c0.013-0.037,0.025-0.073,0.038-0.111c-0.9-4.7-1.3-9.8-1.3-15.3
			c0-31.4,14.5-49.6,37.7-49.6c18.8,0,30.7,10.6,34.4,29.7l44.6-7.9c-6.3-39.7-36.4-64.8-79-64.8c-34.6,0-62.3,18.3-75.9,48.1v0
			c-5.8,12.9-9.1,27.8-9.1,44.5c0,12.5,1.8,24.1,5.2,34.5c11.6,35.7,41.4,58.1,79.7,58.1c29.1,0,52.4-11.7,66.2-31.8l0,0
			c6.4-9.3,10.8-20.4,12.8-33L1717.035,574z"/>
	</g>
	<path style="fill:#1951A0;" d="M1282.135,461.5c-42.2,0-74.1,27.1-82.7,69.2c15,3.1,30.5,5.3,46.2,8.9
		c3.9-22.4,17.2-35.1,36.5-35.1c18.8,0,30.7,10.6,34.4,29.7l44.6-7.9C1354.835,486.7,1324.735,461.5,1282.135,461.5"/>
	<path style="fill:#27348B;" d="M1455.235,441h26.8v-42h-33.1c-34.7,0-53.9,18.5-53.9,49.6v17.8h-34V508h34l0,0h47.3l0,0h30.3v-41.6
		h-30.3v-13.2C1442.335,445.3,1446.635,441,1455.235,441"/>
	<path style="fill:#1951A0;" d="M1442.335,508.2h-47.3v7.5c13.7,42.6,29.8,72.4,47.3,93.5V508.2z"/>
	<path style="fill:#27348B;" d="M1597.335,466.5l-82.5-0.1c26,0,38.7-12.9,38.7-36.7v-7.2h-46.8v44h-24.4v41.6h24.4l0,0
		c32.6-3.2,65-9.6,90.6-20.5V466.5z"/>
	<path style="fill:#1951A0;" d="M1506.735,508.2v77c0,36.2,13.6,52.7,47.1,55.9c11.6-19.5,24.1-33.9,37.2-44.7l0,0h-19.2
		c-13.9,0-17.8-3.3-17.8-14.2v-74h43.3v-20.5C1571.735,498.5,1539.335,505,1506.735,508.2"/>
	<path style="fill:#164194;" d="M1591.035,641.7v-45.3c-13,10.8-25.6,25.2-37.2,44.7c4.2,0.4,8.6,0.6,13.4,0.6L1591.035,641.7
		L1591.035,641.7z"/>
	<path style="fill:#27348B;" d="M1695.835,601.7c17.6,6.8,35.5,10.1,53,13.2c6.4-9.3,10.8-20.4,12.8-33l-44.6-7.9
		C1714.535,588.3,1707.435,597.8,1695.835,601.7"/>
	<path style="fill:#27348B;" d="M1646.335,569.4c-0.9-4.7-1.3-9.8-1.3-15.3c0-31.4,14.5-49.6,37.7-49.6c18.8,0,30.7,10.6,34.4,29.7
		l44.6-7.9c-6.3-39.7-36.4-64.8-79-64.8c-34.6,0-62.3,18.3-75.9,48.1C1618.835,535.9,1632.135,555.1,1646.335,569.4"/>
	<g>
		<g>
			<path style="fill:#1951A0;" d="M1602.935,588.6c11.6,35.7,41.4,58.1,79.7,58.1c29.1,0,52.4-11.7,66.2-31.8
				c-17.4-3.1-35.3-6.4-53-13.2c-3.9,1.3-8.3,2-13.2,2c-19.1,0-32.3-12.3-36.3-34.2C1631.635,573.5,1617.035,579.3,1602.935,588.6"
				/>
		</g>
	</g>
	<path style="fill:#2A6AB2;" d="M1443.735,257.4c3.7-4.9,3.5-11.7-0.7-15.9l-8.4-8.4c-4.6,4.6-5.2,11.7-1.6,16.3l-7.3-7.3
		c-4.6-4.6-12.4-4.3-17.4,0.6l8.4,8.4c4.6,4.6,12.3,4.3,17.3-0.6l7.4,7.4c-4.7-3.6-11.7-3.1-16.3,1.6l8.4,8.4
		c3.7,3.7,9.5,4.3,14.2,1.7c4.5,7.9,6.5,17.1,6,26.2c-0.4-2.9-18.2-49-104.4-17.4c-3.3-3.7-7-7.5-11.3-11.4
		c-2.4-2.8-30.4-37-18.9-81.8c-21.8,5.8-38,22.3-43.5,41.6c-21.8-10.7-48.5-21.6-80.9-32.3c17.5,88.7,47.4,113.1,78.2,122.9
		c-21.8,13.6-46.2,30.6-73.4,51.7c56.8,21.5,94.8,20.7,123.2,10c14.024-5.535,25.748-13.443,36.298-22.203
		c0.001,0.001,0.001,0.002,0.002,0.003c0.027,0.027,0.188-0.105,0.449-0.378c31.705-26.482,52.873-60.522,94.251-60.522
		c-0.6,9.6-4,19.2-10.3,27.2l3.3,2.6C1462.935,305.4,1461.435,275.5,1443.735,257.4z"/>
	<g>
		<g>
			<path style="fill:#27348B;" d="M1319.135,185.2c-21.8,5.8-38,22.3-43.5,41.6c28,13.8,48.1,27.3,62.4,40.2
				C1335.635,264.2,1307.635,230,1319.135,185.2"/>
		</g>
	</g>
	<g>
		<g>
			<path style="fill:#253081;" d="M1275.335,254.9l62.9,12.3c0,0-0.1-0.1-0.2-0.2c-14.3-12.9-34.4-26.4-62.4-40.2
				C1273.035,235.8,1272.835,245.4,1275.335,254.9"/>
		</g>
	</g>
	<path style="fill:#27348B;" d="M1349.335,278.4c-3.3-3.7-7-7.5-11.3-11.4c0.1,0.1,0.2,0.2,0.2,0.2l-62.9-12.3
		c-2.5-9.5-2.3-19.1,0.3-28.1c-21.8-10.7-48.5-21.6-80.9-32.3c17.5,88.7,47.4,113.1,78.2,122.9
		C1302.935,298.6,1328.135,286.2,1349.335,278.4L1349.335,278.4L1349.335,278.4"/>
	<path style="fill:#1951A0;" d="M1443.735,257.4c3.7-4.9,3.5-11.7-0.7-15.9l-8.4-8.4c-4.6,4.6-5.2,11.7-1.6,16.3l-7.3-7.3
		c-4.6-4.6-12.4-4.3-17.4,0.6l8.4,8.4c4.6,4.6,12.3,4.3,17.3-0.6l7.4,7.4c-4.7-3.6-11.7-3.1-16.3,1.6l8.4,8.4
		c3.7,3.7,9.5,4.3,14.2,1.7c4.5,7.9,6.5,17.1,6,26.2c-0.4-2.9-18.2-49-104.4-17.4c39.7,45.1,10.1,78.9,9.7,78.4
		c-9.9-16.8-22.7-24.2-36.8-28.5c-5.5,20.3-3.5,37.7,0.5,50.8c56.5-22.3,75.7-83.1,131-83.1l0,0c-0.6,9.6-4,19.2-10.3,27.2l3.3,2.6
		C1462.935,305.4,1461.435,275.5,1443.735,257.4z"/>
	<path style="fill:#253081;" d="M1349.335,278.4L1349.335,278.4C1349.235,278.4,1349.235,278.4,1349.335,278.4
		c-21.2,7.8-46.4,20.2-76.4,39c16.8,5.3,33.9,6.3,49.3,11l0,0c14.1,4.3,26.9,11.7,36.8,28.5
		C1359.435,357.3,1389.135,323.5,1349.335,278.4z"/>
	<path style="fill:#27348B;" d="M1348.935,614c-10.2-16.9-21.1-29.9-32.4-40c0,0-3.2,29.7-34.4,29.7c-23.1,0-37.7-18.2-37.7-49.6
		c0-5.2,0.4-10.1,1.2-14.5c-15.6-3.6-31.2-5.8-46.1-8.9c-1.5,7.4-2.3,15.2-2.3,23.4c0,55.2,35.4,92.6,85,92.6
		C1311.635,646.7,1335.135,634.6,1348.935,614"/>
</g>
<g>
	<path style="fill:#164194;" d="M1356.736,742.478V700.27h13.41v41.308c0,9.09,5.13,13.41,12.599,13.41
		c7.38,0,12.42-4.5,12.42-13.41V700.27h13.499v42.208c0,17.549-11.969,25.469-25.919,25.469
		C1368.706,767.947,1356.736,760.027,1356.736,742.478z"/>
	<path style="fill:#164194;" d="M1422.706,700.27h26.009c20.069,0,32.038,12.869,32.038,33.388c0,20.34-12.149,33.119-32.578,33.119
		h-25.469V700.27z M1448.804,753.997c11.97,0,18.089-9.359,18.089-20.609c0-11.069-6.119-20.339-18.089-20.339h-12.779v40.948
		H1448.804z"/>
	<path style="fill:#2A6AB2;" d="M1552.122,700.27v9.179l-23.759,57.328h-13.949l22.859-54.268h-28.529V700.27H1552.122z"/>
	<path style="fill:#2A6AB2;" d="M1603.151,745.358c0,12.689-9.63,22.499-24.839,22.499c-7.649,0-15.569-2.52-22.319-7.38
		l5.31-10.619c5.67,3.869,11.52,5.76,16.38,5.76c7.739,0,12.06-4.771,12.06-10.26c0-5.76-4.771-9.99-11.25-9.99
		c-3.87,0-7.829,1.44-10.979,4.41l-7.739-6.21l3.6-33.298h35.188v12.239h-25.289l-1.439,13.049c2.52-0.989,5.579-1.619,8.909-1.619
		C1593.072,723.939,1603.151,732.398,1603.151,745.358z"/>
</g>
<g>
	<path style="fill:#1951A0;" d="M2382.505,416.7v-3.1h-5.7v-5.3h-3.4v5.3h-3.5v3.1h3.5v14.8c0,3.9,1.5,5.3,5.7,5.3h2.2v-3.2h-1.9
		c-1.9,0-2.5-0.6-2.5-2.1v-14.9h5.6V416.7z M2356.805,434.3c-2.9,0-4.5-1.3-4.5-3.6c0-2,1.6-3.2,5.7-4.2c3.1-0.8,4.6-1.6,5.1-2.7
		h0.1v5.2C2363.206,432.1,2360.505,434.3,2356.805,434.3 M2356.605,437.5c2.9,0,5.4-1.2,6.7-3.1h0.1v2.5h3.2v-16.3
		c0-4.6-3.2-7.5-8.4-7.5c-4.9,0-8.5,2.9-9.3,7.4l3.5,0.7c0.6-3.1,2.8-5,5.8-5c2.9,0,4.8,1.4,4.8,3.5c0,1.9-1.4,2.8-5.9,3.9
		c-5.8,1.4-8.2,3.4-8.2,7.4C2348.906,435,2351.906,437.5,2356.605,437.5 M2335.105,437.5c5.3,0,9.2-3.3,10.1-8.5l-3.3-0.7
		c-0.7,3.8-3.2,6-6.8,6c-4.4,0-7.3-3.6-7.3-9.1s2.9-9.1,7.3-9.1c3.6,0,6.1,2.1,6.8,6l3.3-0.7c-0.9-5.2-4.8-8.5-10.1-8.5
		c-6.4,0-10.7,5-10.7,12.3C2324.305,432.6,2328.706,437.5,2335.105,437.5 M2316.206,436.9h3.4v-23.2h-3.4V436.9z M2316.005,409.6
		h3.9v-3.8h-3.9V409.6z M2300.206,434.3c-4.4,0-7.2-3.6-7.2-9.1s2.8-9.1,7-9.1c3.9,0,6.9,3,6.9,6.8v4.5
		C2306.906,431.3,2303.906,434.3,2300.206,434.3 M2300.005,437.5c2.8,0,5.4-1.1,7-3l0,0v2.3h3.3v-32h-3.4V416h-0.1
		c-1.5-1.8-3.9-3.1-6.8-3.1c-6.1,0-10.4,5-10.4,12.3C2289.605,432.5,2293.906,437.5,2300.005,437.5 M2266.105,436.9h3.4v-14.6
		c0-3.6,2.5-6.1,6.1-6.1s5.8,2.3,5.8,6.1v14.6h3.4v-15c0-5.4-3.4-8.9-8.8-8.9c-2.5,0-5.1,1.1-6.5,2.8h-0.1v-2.1h-3.3
		C2266.105,413.7,2266.105,436.9,2266.105,436.9z M2245.105,446.7h3.5l13.9-33.1h-3.5l-7.1,17.3h-0.1l-7.1-17.3h-3.6l8.9,21.3
		L2245.105,446.7z M2228.105,437.5c6.4,0,10.7-3.4,10.7-8.4c0-4.8-2.9-7.5-10.9-10.1c-5.6-1.8-7.4-3-7.4-5.4c0-2.8,2.5-4.7,6.2-4.7
		c4,0,6.7,2.2,7.6,6.3l3.5-0.7c-1-5.5-5.3-8.9-11.1-8.9c-5.8,0-9.8,3.3-9.8,8.1c0,4.1,2.5,6.3,9.8,8.7c6.4,2,8.5,3.7,8.5,6.8
		c0,3-2.8,5-7.1,5c-5.6,0-8.5-2.6-9.1-8l-3.6,0.6C2216.105,433.7,2220.605,437.5,2228.105,437.5"/>
	<g>
		<path style="fill:#2A6AB2;" d="M2300.406,504.5c18.8,0,30.7,10.6,34.4,29.7l44.6-7.9c-6.3-39.6-36.4-64.8-79-64.8
			c-42.2,0-74.1,27.1-82.7,69.2c0.032,0.007,0.064,0.013,0.096,0.019c-1.498,7.394-2.296,15.188-2.296,23.381
			c0,55.2,35.4,92.6,85,92.6c29.4,0,52.9-12.1,66.7-32.7c6.1-9.1,10.3-19.9,12.2-32.1l-44.6-7.9c0,0-3.2,29.7-34.4,29.7
			c-23.1,0-37.7-18.2-37.7-49.6c0-5.2,0.4-10.1,1.2-14.5C2267.805,517.2,2281.105,504.5,2300.406,504.5z"/>
		<path style="fill:#2A6AB2;" d="M2473.505,441h26.8v-42h-33.1c-34.7,0-53.9,18.5-53.9,49.6v17.8h-34V508h34v7.7v126h47.3v-32.5V508
			h30.3v-41.6h-30.3v-13.2C2460.605,445.3,2464.906,441,2473.505,441z"/>
		<path style="fill:#2A6AB2;" d="M2615.605,466.5l-82.5-0.1c26,0,38.7-12.9,38.7-36.7v-7.2h-46.8v44h-24.4v41.6h24.4
			c0.001,0,0.003,0,0.004,0c0,0.034-0.004,0.066-0.004,0.1v77c0,36.2,13.6,52.7,47.1,55.9c4.2,0.4,8.6,0.6,13.4,0.6h23.8v0v-45.3v0
			h-19.2c-13.9,0-17.8-3.3-17.8-14.2v-74h43.3v-20.5c-0.059-0.01-0.115-0.019-0.174-0.029c0.057-0.024,0.117-0.047,0.174-0.071
			V466.5z"/>
		<path style="fill:#2A6AB2;" d="M2735.305,574c-2.5,14.3-9.6,23.8-21.2,27.7c-3.9,1.3-8.3,2-13.2,2c-19.1,0-32.3-12.3-36.3-34.2
			c-0.013,0.003-0.025,0.007-0.038,0.011c0.013-0.037,0.025-0.073,0.038-0.111c-0.9-4.7-1.3-9.8-1.3-15.3
			c0-31.4,14.5-49.6,37.7-49.6c18.8,0,30.7,10.6,34.4,29.7l44.6-7.9c-6.3-39.7-36.4-64.8-79-64.8c-34.6,0-62.3,18.3-75.9,48.1v0
			c-5.8,12.9-9.1,27.8-9.1,44.5c0,12.5,1.8,24.1,5.2,34.5c11.6,35.7,41.4,58.1,79.7,58.1c29.1,0,52.4-11.7,66.2-31.8l0,0
			c6.4-9.3,10.8-20.4,12.8-33L2735.305,574z"/>
	</g>
	<path style="fill:#1951A0;" d="M2300.406,461.5c-42.2,0-74.1,27.1-82.7,69.2c15,3.1,30.5,5.3,46.2,8.9
		c3.9-22.4,17.2-35.1,36.5-35.1c18.8,0,30.7,10.6,34.4,29.7l44.6-7.9C2373.105,486.7,2343.005,461.5,2300.406,461.5"/>
	<path style="fill:#27348B;" d="M2473.505,441h26.8v-42h-33.1c-34.7,0-53.9,18.5-53.9,49.6v17.8h-34V508h34l0,0h47.3l0,0h30.3v-41.6
		h-30.3v-13.2C2460.605,445.3,2464.906,441,2473.505,441"/>
	<path style="fill:#1951A0;" d="M2460.605,508.2h-47.3v7.5c13.7,42.6,29.8,72.4,47.3,93.5V508.2z"/>
	<path style="fill:#27348B;" d="M2615.605,466.5l-82.5-0.1c26,0,38.7-12.9,38.7-36.7v-7.2h-46.8v44h-24.4v41.6h24.4l0,0
		c32.6-3.2,65-9.6,90.6-20.5V466.5z"/>
	<path style="fill:#1951A0;" d="M2525.005,508.2v77c0,36.2,13.6,52.7,47.1,55.9c11.6-19.5,24.1-33.9,37.2-44.7l0,0h-19.2
		c-13.9,0-17.8-3.3-17.8-14.2v-74h43.3v-20.5C2590.005,498.5,2557.605,505,2525.005,508.2"/>
	<path style="fill:#164194;" d="M2609.305,641.7v-45.3c-13,10.8-25.6,25.2-37.2,44.7c4.2,0.4,8.6,0.6,13.4,0.6L2609.305,641.7
		L2609.305,641.7z"/>
	<path style="fill:#27348B;" d="M2714.105,601.7c17.6,6.8,35.5,10.1,53,13.2c6.4-9.3,10.8-20.4,12.8-33l-44.6-7.9
		C2732.805,588.3,2725.706,597.8,2714.105,601.7"/>
	<path style="fill:#27348B;" d="M2664.605,569.4c-0.9-4.7-1.3-9.8-1.3-15.3c0-31.4,14.5-49.6,37.7-49.6c18.8,0,30.7,10.6,34.4,29.7
		l44.6-7.9c-6.3-39.7-36.4-64.8-79-64.8c-34.6,0-62.3,18.3-75.9,48.1C2637.105,535.9,2650.406,555.1,2664.605,569.4"/>
	<g>
		<g>
			<path style="fill:#1951A0;" d="M2621.206,588.6c11.6,35.7,41.4,58.1,79.7,58.1c29.1,0,52.4-11.7,66.2-31.8
				c-17.4-3.1-35.3-6.4-53-13.2c-3.9,1.3-8.3,2-13.2,2c-19.1,0-32.3-12.3-36.3-34.2C2649.906,573.5,2635.305,579.3,2621.206,588.6"
				/>
		</g>
	</g>
	<path style="fill:#2A6AB2;" d="M2462.005,257.4c3.7-4.9,3.5-11.7-0.7-15.9l-8.4-8.4c-4.6,4.6-5.2,11.7-1.6,16.3l-7.3-7.3
		c-4.6-4.6-12.4-4.3-17.4,0.6l8.4,8.4c4.6,4.6,12.3,4.3,17.3-0.6l7.4,7.4c-4.7-3.6-11.7-3.1-16.3,1.6l8.4,8.4
		c3.7,3.7,9.5,4.3,14.2,1.7c4.5,7.9,6.5,17.1,6,26.2c-0.4-2.9-18.2-49-104.4-17.4c-3.3-3.7-7-7.5-11.3-11.4
		c-2.4-2.8-30.4-37-18.9-81.8c-21.8,5.8-38,22.3-43.5,41.6c-21.8-10.7-48.5-21.6-80.9-32.3c17.5,88.7,47.4,113.1,78.2,122.9
		c-21.8,13.6-46.2,30.6-73.4,51.7c56.8,21.5,94.8,20.7,123.2,10c14.024-5.535,25.748-13.443,36.298-22.203
		c0.001,0.001,0.001,0.002,0.002,0.003c0.027,0.027,0.188-0.105,0.448-0.378c31.705-26.482,52.873-60.522,94.251-60.522
		c-0.6,9.6-4,19.2-10.3,27.2l3.3,2.6C2481.206,305.4,2479.706,275.5,2462.005,257.4z"/>
	<g>
		<g>
			<path style="fill:#27348B;" d="M2337.406,185.2c-21.8,5.8-38,22.3-43.5,41.6c28,13.8,48.1,27.3,62.4,40.2
				C2353.906,264.2,2325.906,230,2337.406,185.2"/>
		</g>
	</g>
	<g>
		<g>
			<path style="fill:#253081;" d="M2293.605,254.9l62.9,12.3c0,0-0.1-0.1-0.2-0.2c-14.3-12.9-34.4-26.4-62.4-40.2
				C2291.305,235.8,2291.105,245.4,2293.605,254.9"/>
		</g>
	</g>
	<path style="fill:#27348B;" d="M2367.605,278.4c-3.3-3.7-7-7.5-11.3-11.4c0.1,0.1,0.2,0.2,0.2,0.2l-62.9-12.3
		c-2.5-9.5-2.3-19.1,0.3-28.1c-21.8-10.7-48.5-21.6-80.9-32.3c17.5,88.7,47.4,113.1,78.2,122.9
		C2321.206,298.6,2346.406,286.2,2367.605,278.4L2367.605,278.4L2367.605,278.4"/>
	<path style="fill:#1951A0;" d="M2462.005,257.4c3.7-4.9,3.5-11.7-0.7-15.9l-8.4-8.4c-4.6,4.6-5.2,11.7-1.6,16.3l-7.3-7.3
		c-4.6-4.6-12.4-4.3-17.4,0.6l8.4,8.4c4.6,4.6,12.3,4.3,17.3-0.6l7.4,7.4c-4.7-3.6-11.7-3.1-16.3,1.6l8.4,8.4
		c3.7,3.7,9.5,4.3,14.2,1.7c4.5,7.9,6.5,17.1,6,26.2c-0.4-2.9-18.2-49-104.4-17.4c39.7,45.1,10.1,78.9,9.7,78.4
		c-9.9-16.8-22.7-24.2-36.8-28.5c-5.5,20.3-3.5,37.7,0.5,50.8c56.5-22.3,75.7-83.1,131-83.1l0,0c-0.6,9.6-4,19.2-10.3,27.2l3.3,2.6
		C2481.206,305.4,2479.706,275.5,2462.005,257.4z"/>
	<path style="fill:#253081;" d="M2367.605,278.4L2367.605,278.4C2367.505,278.4,2367.505,278.4,2367.605,278.4
		c-21.2,7.8-46.4,20.2-76.4,39c16.8,5.3,33.9,6.3,49.3,11l0,0c14.1,4.3,26.9,11.7,36.8,28.5
		C2377.706,357.3,2407.406,323.5,2367.605,278.4z"/>
	<path style="fill:#27348B;" d="M2367.206,614c-10.2-16.9-21.1-29.9-32.4-40c0,0-3.2,29.7-34.4,29.7c-23.1,0-37.7-18.2-37.7-49.6
		c0-5.2,0.4-10.1,1.2-14.5c-15.6-3.6-31.2-5.8-46.1-8.9c-1.5,7.4-2.3,15.2-2.3,23.4c0,55.2,35.4,92.6,85,92.6
		C2329.906,646.7,2353.406,634.6,2367.206,614"/>
</g>
<g>
	<path style="fill:#164194;" d="M2458.11,711.769c0,7.688-4.82,14.641-16.594,14.641h-6.954v15.557h-9.028v-45.082h16.654
		C2453.534,696.884,2458.11,704.265,2458.11,711.769z M2448.898,711.648c0-3.355-2.318-6.406-6.589-6.406h-7.747v12.994h7.259
		C2446.762,718.236,2448.898,714.941,2448.898,711.648z"/>
	<path style="fill:#164194;" d="M2496.296,708.72v33.246h-8.175v-3.844c-2.44,2.625-5.917,4.637-10.614,4.637
		c-9.639,0-16.472-7.686-16.472-17.568c0-10.006,7.016-17.326,16.472-17.326c4.697,0,8.113,2.074,10.614,4.82v-3.965H2496.296z
		 M2488.243,725.312c0-5.186-3.844-9.578-9.334-9.578c-5.551,0-9.272,4.393-9.272,9.578c0,5.309,3.782,9.639,9.272,9.639
		S2488.243,730.558,2488.243,725.312z"/>
	<path style="fill:#164194;" d="M2504.04,708.72h8.236v4.453c2.073-3.66,5.246-5.369,9.15-5.369c1.22,0,2.684,0.244,4.025,0.732
		l-0.731,8.234c-1.343-0.426-2.685-0.67-3.966-0.67c-4.514,0-8.113,2.807-8.113,10.066v15.799h-8.602V708.72z"/>
	<path style="fill:#164194;" d="M2528.866,699.691c0-2.99,2.318-5.246,5.307-5.246c2.99,0,5.309,2.256,5.309,5.246
		c0,3.051-2.318,5.307-5.309,5.307C2531.184,704.997,2528.866,702.742,2528.866,699.691z M2529.843,741.966V708.72h8.602v33.246
		H2529.843z"/>
	<path style="fill:#164194;" d="M2543.506,736.415l4.575-5.43c2.379,2.867,5.856,4.637,9.212,4.637c2.623,0,4.575-1.342,4.575-3.234
		c0-1.219-0.793-2.135-2.379-2.867c-1.83-0.854-6.223-2.256-8.236-3.293c-3.781-1.83-5.734-4.76-5.734-8.602
		c0-5.797,4.881-10.006,12.445-10.006c4.271,0,8.418,1.404,11.652,4.76l-4.271,5.551c-2.5-2.379-5.367-3.295-7.625-3.295
		c-2.379,0-3.782,1.281-3.782,2.807c0,1.158,0.731,2.318,2.929,3.051c2.074,0.793,5.368,1.891,7.991,3.232
		c3.722,1.953,5.612,4.516,5.612,8.42c0,6.039-5.125,10.676-13.238,10.676C2551.925,742.822,2546.86,740.685,2543.506,736.415z"/>
</g>
<rect x="1010.268" y="993.197" style="display:none;fill:#010202;" width="935.935" height="935.935"/>
<g>
	<path style="fill:#FFFFFF;" d="M1364.235,1409.897v-3.1h-5.7v-5.3h-3.4v5.3h-3.5v3.1h3.5v14.8c0,3.9,1.5,5.3,5.7,5.3h2.2v-3.2h-1.9
		c-1.9,0-2.5-0.6-2.5-2.1v-14.9h5.6V1409.897z M1338.535,1427.497c-2.9,0-4.5-1.3-4.5-3.6c0-2,1.6-3.2,5.7-4.2
		c3.1-0.8,4.6-1.6,5.1-2.7h0.1v5.2C1344.935,1425.297,1342.235,1427.497,1338.535,1427.497 M1338.335,1430.697
		c2.9,0,5.4-1.2,6.7-3.1h0.1v2.5h3.2v-16.3c0-4.6-3.2-7.5-8.4-7.5c-4.9,0-8.5,2.9-9.3,7.4l3.5,0.7c0.6-3.1,2.8-5,5.8-5
		c2.9,0,4.8,1.4,4.8,3.5c0,1.9-1.4,2.8-5.9,3.9c-5.8,1.4-8.2,3.4-8.2,7.4C1330.635,1428.197,1333.635,1430.697,1338.335,1430.697
		 M1316.835,1430.697c5.3,0,9.2-3.3,10.1-8.5l-3.3-0.7c-0.7,3.8-3.2,6-6.8,6c-4.4,0-7.3-3.6-7.3-9.1s2.9-9.1,7.3-9.1
		c3.6,0,6.1,2.1,6.8,6l3.3-0.7c-0.9-5.2-4.8-8.5-10.1-8.5c-6.4,0-10.7,5-10.7,12.3
		C1306.035,1425.797,1310.435,1430.697,1316.835,1430.697 M1297.935,1430.097h3.4v-23.2h-3.4V1430.097z M1297.735,1402.797h3.9v-3.8
		h-3.9V1402.797z M1281.935,1427.497c-4.4,0-7.2-3.6-7.2-9.1s2.8-9.1,7-9.1c3.9,0,6.9,3,6.9,6.8v4.5
		C1288.635,1424.497,1285.635,1427.497,1281.935,1427.497 M1281.735,1430.697c2.8,0,5.4-1.1,7-3l0,0v2.3h3.3v-32h-3.4v11.2h-0.1
		c-1.5-1.8-3.9-3.1-6.8-3.1c-6.1,0-10.4,5-10.4,12.3S1275.635,1430.697,1281.735,1430.697 M1247.835,1430.097h3.4v-14.6
		c0-3.6,2.5-6.1,6.1-6.1s5.8,2.3,5.8,6.1v14.6h3.4v-15c0-5.4-3.4-8.9-8.8-8.9c-2.5,0-5.1,1.1-6.5,2.8h-0.1v-2.1h-3.3V1430.097z
		 M1226.835,1439.897h3.5l13.9-33.1h-3.5l-7.1,17.3h-0.1l-7.1-17.3h-3.6l8.9,21.3L1226.835,1439.897z M1209.835,1430.697
		c6.4,0,10.7-3.4,10.7-8.4c0-4.8-2.9-7.5-10.9-10.1c-5.6-1.8-7.4-3-7.4-5.4c0-2.8,2.5-4.7,6.2-4.7c4,0,6.7,2.2,7.6,6.3l3.5-0.7
		c-1-5.5-5.3-8.9-11.1-8.9c-5.8,0-9.8,3.3-9.8,8.1c0,4.1,2.5,6.3,9.8,8.7c6.4,2,8.5,3.7,8.5,6.8c0,3-2.8,5-7.1,5
		c-5.6,0-8.5-2.6-9.1-8l-3.6,0.6C1197.835,1426.897,1202.335,1430.697,1209.835,1430.697"/>
	<path style="fill:#A0B2D3;" d="M1282.135,1497.697c18.8,0,30.7,10.6,34.4,29.7l44.6-7.9c-6.3-39.6-36.4-64.8-79-64.8
		c-42.2,0-74.1,27.1-82.7,69.2c0.032,0.007,0.064,0.013,0.096,0.019c-1.497,7.394-2.296,15.188-2.296,23.381
		c0,55.2,35.4,92.6,85,92.6c29.4,0,52.9-12.1,66.7-32.7c6.1-9.1,10.3-19.9,12.2-32.1l-44.6-7.9c0,0-3.2,29.7-34.4,29.7
		c-23.1,0-37.7-18.2-37.7-49.6c0-5.2,0.4-10.1,1.2-14.5C1249.535,1510.397,1262.835,1497.697,1282.135,1497.697z"/>
	<path style="fill:#A0B2D3;" d="M1455.235,1434.197h26.8v-42h-33.1c-34.7,0-53.9,18.5-53.9,49.6v17.8h-34v41.6h34v7.7v126h47.3
		v-32.5v-101.2h30.3v-41.6h-30.3v-13.2C1442.335,1438.497,1446.635,1434.197,1455.235,1434.197z"/>
	<path style="fill:#2A6AB2;" d="M1597.335,1459.697l-82.5-0.1c26,0,38.7-12.9,38.7-36.7v-7.2h-46.8v44h-24.4v41.6h24.4
		c0.001,0,0.003,0,0.004,0c0,0.034-0.004,0.066-0.004,0.1v77c0,36.2,13.6,52.7,47.1,55.9c4.2,0.4,8.6,0.6,13.4,0.6h23.8v0v-45.3h0
		h-19.2c-13.9,0-17.8-3.3-17.8-14.2v-74h43.3v-20.5c-0.058-0.01-0.115-0.019-0.173-0.029c0.057-0.024,0.117-0.047,0.173-0.071
		V1459.697z"/>
	<path style="fill:#A0B2D3;" d="M1717.035,1567.197c-2.5,14.3-9.6,23.8-21.2,27.7c-3.9,1.3-8.3,2-13.2,2
		c-19.1,0-32.3-12.3-36.3-34.2c-0.013,0.003-0.025,0.007-0.038,0.011c0.013-0.037,0.025-0.073,0.038-0.111
		c-0.9-4.7-1.3-9.8-1.3-15.3c0-31.4,14.5-49.6,37.7-49.6c18.8,0,30.7,10.6,34.4,29.7l44.6-7.9c-6.3-39.7-36.4-64.8-79-64.8
		c-34.6,0-62.3,18.3-75.9,48.1v0c-5.8,12.9-9.1,27.8-9.1,44.5c0,12.5,1.8,24.1,5.2,34.5c11.6,35.7,41.4,58.1,79.7,58.1
		c29.1,0,52.4-11.7,66.2-31.8l0,0c6.4-9.3,10.8-20.4,12.8-33L1717.035,1567.197z"/>
	<path style="fill:#D8DFED;" d="M1282.135,1454.697c-42.2,0-74.1,27.1-82.7,69.2c15,3.1,30.5,5.3,46.2,8.9
		c3.9-22.4,17.2-35.1,36.5-35.1c18.8,0,30.7,10.6,34.4,29.7l44.6-7.9C1354.835,1479.897,1324.735,1454.697,1282.135,1454.697"/>
	<path style="fill:#FFFFFF;" d="M1455.235,1434.197h26.8v-42h-33.1c-34.7,0-53.9,18.5-53.9,49.6v17.8h-34v41.6h34l0,0h47.3l0,0h30.3
		v-41.6h-30.3v-13.2C1442.335,1438.497,1446.635,1434.197,1455.235,1434.197"/>
	<path style="fill:#EBEFF6;" d="M1442.335,1501.397h-47.3v7.5c13.7,42.6,29.8,72.4,47.3,93.5V1501.397z"/>
	<path style="fill:#D9DFED;" d="M1597.335,1459.697l-82.5-0.1c26,0,38.7-12.9,38.7-36.7v-7.2h-46.8v44h-24.4v41.6h24.4l0,0
		c32.6-3.2,65-9.6,90.6-20.5V1459.697z"/>
	<path style="fill:#EBEFF6;" d="M1506.735,1501.397v77c0,36.2,13.6,52.7,47.1,55.9c11.6-19.5,24.1-33.9,37.2-44.7l0,0h-19.2
		c-13.9,0-17.8-3.3-17.8-14.2v-74h43.3v-20.5C1571.735,1491.697,1539.335,1498.197,1506.735,1501.397"/>
	<path style="fill:#F2F5F9;" d="M1591.035,1634.897v-45.3c-13,10.8-25.6,25.2-37.2,44.7c4.2,0.4,8.6,0.6,13.4,0.6H1591.035
		L1591.035,1634.897z"/>
	<path style="fill:#F8F9FC;" d="M1695.835,1594.897c17.6,6.8,35.5,10.1,53,13.2c6.4-9.3,10.8-20.4,12.8-33l-44.6-7.9
		C1714.535,1581.497,1707.435,1590.997,1695.835,1594.897"/>
	<path style="fill:#EBEFF6;" d="M1646.335,1562.597c-0.9-4.7-1.3-9.8-1.3-15.3c0-31.4,14.5-49.6,37.7-49.6
		c18.8,0,30.7,10.6,34.4,29.7l44.6-7.9c-6.3-39.7-36.4-64.8-79-64.8c-34.6,0-62.3,18.3-75.9,48.1
		C1618.835,1529.097,1632.135,1548.297,1646.335,1562.597"/>
	<g>
		<g>
			<path style="fill:#D8DFED;" d="M1602.935,1581.797c11.6,35.7,41.4,58.1,79.7,58.1c29.1,0,52.4-11.7,66.2-31.8
				c-17.4-3.1-35.3-6.4-53-13.2c-3.9,1.3-8.3,2-13.2,2c-19.1,0-32.3-12.3-36.3-34.2
				C1631.635,1566.697,1617.035,1572.497,1602.935,1581.797"/>
		</g>
	</g>
	<path style="fill:#CFD8EA;" d="M1443.735,1250.597c3.7-4.9,3.5-11.7-0.7-15.9l-8.4-8.4c-4.6,4.6-5.2,11.7-1.6,16.3l-7.3-7.3
		c-4.6-4.6-12.4-4.3-17.4,0.6l8.4,8.4c4.6,4.6,12.3,4.3,17.3-0.6l7.4,7.4c-4.7-3.6-11.7-3.1-16.3,1.6l8.4,8.4
		c3.7,3.7,9.5,4.3,14.2,1.7c4.5,7.9,6.5,17.1,6,26.2c-0.4-2.9-18.2-49-104.4-17.4c-3.3-3.7-7-7.5-11.3-11.4
		c-2.4-2.8-30.4-37-18.9-81.8c-21.8,5.8-38,22.3-43.5,41.6c-21.8-10.7-48.5-21.6-80.9-32.3c17.5,88.7,47.4,113.1,78.2,122.9
		c-21.8,13.6-46.2,30.6-73.4,51.7c56.8,21.5,94.8,20.7,123.2,10c14.024-5.535,25.748-13.443,36.298-22.203
		c0.001,0.001,0.001,0.002,0.002,0.003c0.027,0.027,0.188-0.105,0.449-0.378c31.705-26.482,52.873-60.522,94.251-60.522
		c-0.6,9.6-4,19.2-10.3,27.2l3.3,2.6C1462.935,1298.597,1461.435,1268.697,1443.735,1250.597z"/>
	<g>
		<g>
			<path style="fill:#FFFFFF;" d="M1319.135,1178.397c-21.8,5.8-38,22.3-43.5,41.6c28,13.8,48.1,27.3,62.4,40.2
				C1335.635,1257.397,1307.635,1223.197,1319.135,1178.397"/>
		</g>
	</g>
	<g>
		<g>
			<path style="fill:#FFFFFF;" d="M1275.335,1248.097l62.9,12.3c0,0-0.1-0.1-0.2-0.2c-14.3-12.9-34.4-26.4-62.4-40.2
				C1273.035,1228.997,1272.835,1238.597,1275.335,1248.097"/>
		</g>
	</g>
	<path style="fill:#CFD8EA;" d="M1349.335,1271.597c-3.3-3.7-7-7.5-11.3-11.4c0.1,0.1,0.2,0.2,0.2,0.2l-62.9-12.3
		c-2.5-9.5-2.3-19.1,0.3-28.1c-21.8-10.7-48.5-21.6-80.9-32.3c17.5,88.7,47.4,113.1,78.2,122.9
		C1302.935,1291.797,1328.135,1279.397,1349.335,1271.597L1349.335,1271.597L1349.335,1271.597"/>
	<path style="fill:#CFD8EA;" d="M1443.735,1250.597c3.7-4.9,3.5-11.7-0.7-15.9l-8.4-8.4c-4.6,4.6-5.2,11.7-1.6,16.3l-7.3-7.3
		c-4.6-4.6-12.4-4.3-17.4,0.6l8.4,8.4c4.6,4.6,12.3,4.3,17.3-0.6l7.4,7.4c-4.7-3.6-11.7-3.1-16.3,1.6l8.4,8.4
		c3.7,3.7,9.5,4.3,14.2,1.7c4.5,7.9,6.5,17.1,6,26.2c-0.4-2.9-18.2-49-104.4-17.4c39.7,45.1,10.1,78.9,9.7,78.4
		c-9.9-16.8-22.7-24.2-36.8-28.5c-5.5,20.3-3.5,37.7,0.5,50.8c56.5-22.3,75.7-83.1,131-83.1l0,0c-0.6,9.6-4,19.2-10.3,27.2l3.3,2.6
		C1462.935,1298.597,1461.435,1268.697,1443.735,1250.597z"/>
	<path style="fill:#F5F7FA;" d="M1349.335,1271.597L1349.335,1271.597C1349.235,1271.597,1349.235,1271.597,1349.335,1271.597
		c-21.2,7.8-46.4,20.2-76.4,39c16.8,5.3,33.9,6.3,49.3,11l0,0c14.1,4.3,26.9,11.7,36.8,28.5
		C1359.435,1350.497,1389.135,1316.697,1349.335,1271.597z"/>
	<path style="fill:#EBEFF6;" d="M1348.935,1607.197c-10.2-16.9-21.1-29.9-32.4-40c0,0-3.2,29.7-34.4,29.7
		c-23.1,0-37.7-18.2-37.7-49.6c0-5.2,0.4-10.1,1.2-14.5c-15.6-3.6-31.2-5.8-46.1-8.9c-1.5,7.4-2.3,15.2-2.3,23.4
		c0,55.2,35.4,92.6,85,92.6C1311.635,1639.897,1335.135,1627.797,1348.935,1607.197"/>
	<path style="fill:#FFFFFF;" d="M1453.735,1289.197L1453.735,1289.197c-0.6,9.6-4,19.2-10.3,27.2l3.3,2.6
		c16.2-20.4,14.7-50.3-3-68.4c3.7-4.9,3.5-11.7-0.7-15.9l-8.4-8.4c-4.6,4.6-5.2,11.7-1.6,16.3l-7.3-7.3c-4.6-4.6-12.4-4.3-17.4,0.6
		l8.4,8.4c4.6,4.6,12.3,4.3,17.3-0.6l7.4,7.4c-4.7-3.6-11.7-3.1-16.3,1.6l8.4,8.4c3.7,3.7,9.5,4.3,14.2,1.7c4.5,7.9,6.5,17.1,6,26.2
		"/>
</g>
<rect x="2028.538" y="993.197" style="display:none;fill:#010202;" width="935.935" height="935.935"/>
<g>
	<path style="fill:#FFFFFF;" d="M2382.505,1409.897v-3.1h-5.7v-5.3h-3.4v5.3h-3.5v3.1h3.5v14.8c0,3.9,1.5,5.3,5.7,5.3h2.2v-3.2h-1.9
		c-1.9,0-2.5-0.6-2.5-2.1v-14.9h5.6V1409.897z M2356.805,1427.497c-2.9,0-4.5-1.3-4.5-3.6c0-2,1.6-3.2,5.7-4.2
		c3.1-0.8,4.6-1.6,5.1-2.7h0.1v5.2C2363.206,1425.297,2360.505,1427.497,2356.805,1427.497 M2356.605,1430.697
		c2.9,0,5.4-1.2,6.7-3.1h0.1v2.5h3.2v-16.3c0-4.6-3.2-7.5-8.4-7.5c-4.9,0-8.5,2.9-9.3,7.4l3.5,0.7c0.6-3.1,2.8-5,5.8-5
		c2.9,0,4.8,1.4,4.8,3.5c0,1.9-1.4,2.8-5.9,3.9c-5.8,1.4-8.2,3.4-8.2,7.4C2348.906,1428.197,2351.906,1430.697,2356.605,1430.697
		 M2335.105,1430.697c5.3,0,9.2-3.3,10.1-8.5l-3.3-0.7c-0.7,3.8-3.2,6-6.8,6c-4.4,0-7.3-3.6-7.3-9.1s2.9-9.1,7.3-9.1
		c3.6,0,6.1,2.1,6.8,6l3.3-0.7c-0.9-5.2-4.8-8.5-10.1-8.5c-6.4,0-10.7,5-10.7,12.3
		C2324.305,1425.797,2328.706,1430.697,2335.105,1430.697 M2316.206,1430.097h3.4v-23.2h-3.4V1430.097z M2316.005,1402.797h3.9v-3.8
		h-3.9V1402.797z M2300.206,1427.497c-4.4,0-7.2-3.6-7.2-9.1s2.8-9.1,7-9.1c3.9,0,6.9,3,6.9,6.8v4.5
		C2306.906,1424.497,2303.906,1427.497,2300.206,1427.497 M2300.005,1430.697c2.8,0,5.4-1.1,7-3l0,0v2.3h3.3v-32h-3.4v11.2h-0.1
		c-1.5-1.8-3.9-3.1-6.8-3.1c-6.1,0-10.4,5-10.4,12.3S2293.906,1430.697,2300.005,1430.697 M2266.105,1430.097h3.4v-14.6
		c0-3.6,2.5-6.1,6.1-6.1s5.8,2.3,5.8,6.1v14.6h3.4v-15c0-5.4-3.4-8.9-8.8-8.9c-2.5,0-5.1,1.1-6.5,2.8h-0.1v-2.1h-3.3V1430.097z
		 M2245.105,1439.897h3.5l13.9-33.1h-3.5l-7.1,17.3h-0.1l-7.1-17.3h-3.6l8.9,21.3L2245.105,1439.897z M2228.105,1430.697
		c6.4,0,10.7-3.4,10.7-8.4c0-4.8-2.9-7.5-10.9-10.1c-5.6-1.8-7.4-3-7.4-5.4c0-2.8,2.5-4.7,6.2-4.7c4,0,6.7,2.2,7.6,6.3l3.5-0.7
		c-1-5.5-5.3-8.9-11.1-8.9c-5.8,0-9.8,3.3-9.8,8.1c0,4.1,2.5,6.3,9.8,8.7c6.4,2,8.5,3.7,8.5,6.8c0,3-2.8,5-7.1,5
		c-5.6,0-8.5-2.6-9.1-8l-3.6,0.6C2216.105,1426.897,2220.605,1430.697,2228.105,1430.697"/>
	<path style="fill:#A0B2D3;" d="M2300.406,1497.697c18.8,0,30.7,10.6,34.4,29.7l44.6-7.9c-6.3-39.6-36.4-64.8-79-64.8
		c-42.2,0-74.1,27.1-82.7,69.2c0.032,0.007,0.064,0.013,0.096,0.019c-1.498,7.394-2.296,15.188-2.296,23.381
		c0,55.2,35.4,92.6,85,92.6c29.4,0,52.9-12.1,66.7-32.7c6.1-9.1,10.3-19.9,12.2-32.1l-44.6-7.9c0,0-3.2,29.7-34.4,29.7
		c-23.1,0-37.7-18.2-37.7-49.6c0-5.2,0.4-10.1,1.2-14.5C2267.805,1510.397,2281.105,1497.697,2300.406,1497.697z"/>
	<path style="fill:#A0B2D3;" d="M2473.505,1434.197h26.8v-42h-33.1c-34.7,0-53.9,18.5-53.9,49.6v17.8h-34v41.6h34v7.7v126h47.3
		v-32.5v-101.2h30.3v-41.6h-30.3v-13.2C2460.605,1438.497,2464.906,1434.197,2473.505,1434.197z"/>
	<path style="fill:#2A6AB2;" d="M2615.605,1459.697l-82.5-0.1c26,0,38.7-12.9,38.7-36.7v-7.2h-46.8v44h-24.4v41.6h24.4
		c0.001,0,0.003,0,0.004,0c0,0.034-0.004,0.066-0.004,0.1v77c0,36.2,13.6,52.7,47.1,55.9c4.2,0.4,8.6,0.6,13.4,0.6h23.8v0v-45.3l0,0
		h-19.2c-13.9,0-17.8-3.3-17.8-14.2v-74h43.3v-20.5c-0.059-0.01-0.115-0.019-0.174-0.029c0.057-0.024,0.117-0.047,0.174-0.071
		V1459.697z"/>
	<path style="fill:#A0B2D3;" d="M2735.305,1567.197c-2.5,14.3-9.6,23.8-21.2,27.7c-3.9,1.3-8.3,2-13.2,2
		c-19.1,0-32.3-12.3-36.3-34.2c-0.013,0.003-0.025,0.007-0.038,0.011c0.013-0.037,0.025-0.073,0.038-0.111
		c-0.9-4.7-1.3-9.8-1.3-15.3c0-31.4,14.5-49.6,37.7-49.6c18.8,0,30.7,10.6,34.4,29.7l44.6-7.9c-6.3-39.7-36.4-64.8-79-64.8
		c-34.6,0-62.3,18.3-75.9,48.1v0c-5.8,12.9-9.1,27.8-9.1,44.5c0,12.5,1.8,24.1,5.2,34.5c11.6,35.7,41.4,58.1,79.7,58.1
		c29.1,0,52.4-11.7,66.2-31.8l0,0c6.4-9.3,10.8-20.4,12.8-33L2735.305,1567.197z"/>
	<path style="fill:#D8DFED;" d="M2300.406,1454.697c-42.2,0-74.1,27.1-82.7,69.2c15,3.1,30.5,5.3,46.2,8.9
		c3.9-22.4,17.2-35.1,36.5-35.1c18.8,0,30.7,10.6,34.4,29.7l44.6-7.9C2373.105,1479.897,2343.005,1454.697,2300.406,1454.697"/>
	<path style="fill:#FFFFFF;" d="M2473.505,1434.197h26.8v-42h-33.1c-34.7,0-53.9,18.5-53.9,49.6v17.8h-34v41.6h34l0,0h47.3l0,0h30.3
		v-41.6h-30.3v-13.2C2460.605,1438.497,2464.906,1434.197,2473.505,1434.197"/>
	<path style="fill:#EBEFF6;" d="M2460.605,1501.397h-47.3v7.5c13.7,42.6,29.8,72.4,47.3,93.5V1501.397z"/>
	<path style="fill:#D9DFED;" d="M2615.605,1459.697l-82.5-0.1c26,0,38.7-12.9,38.7-36.7v-7.2h-46.8v44h-24.4v41.6h24.4l0,0
		c32.6-3.2,65-9.6,90.6-20.5V1459.697z"/>
	<path style="fill:#EBEFF6;" d="M2525.005,1501.397v77c0,36.2,13.6,52.7,47.1,55.9c11.6-19.5,24.1-33.9,37.2-44.7l0,0h-19.2
		c-13.9,0-17.8-3.3-17.8-14.2v-74h43.3v-20.5C2590.005,1491.697,2557.605,1498.197,2525.005,1501.397"/>
	<path style="fill:#F2F5F9;" d="M2609.305,1634.897v-45.3c-13,10.8-25.6,25.2-37.2,44.7c4.2,0.4,8.6,0.6,13.4,0.6H2609.305
		L2609.305,1634.897z"/>
	<path style="fill:#F8F9FC;" d="M2714.105,1594.897c17.6,6.8,35.5,10.1,53,13.2c6.4-9.3,10.8-20.4,12.8-33l-44.6-7.9
		C2732.805,1581.497,2725.706,1590.997,2714.105,1594.897"/>
	<path style="fill:#EBEFF6;" d="M2664.605,1562.597c-0.9-4.7-1.3-9.8-1.3-15.3c0-31.4,14.5-49.6,37.7-49.6
		c18.8,0,30.7,10.6,34.4,29.7l44.6-7.9c-6.3-39.7-36.4-64.8-79-64.8c-34.6,0-62.3,18.3-75.9,48.1
		C2637.105,1529.097,2650.406,1548.297,2664.605,1562.597"/>
	<g>
		<g>
			<path style="fill:#D8DFED;" d="M2621.206,1581.797c11.6,35.7,41.4,58.1,79.7,58.1c29.1,0,52.4-11.7,66.2-31.8
				c-17.4-3.1-35.3-6.4-53-13.2c-3.9,1.3-8.3,2-13.2,2c-19.1,0-32.3-12.3-36.3-34.2
				C2649.906,1566.697,2635.305,1572.497,2621.206,1581.797"/>
		</g>
	</g>
	<path style="fill:#CFD8EA;" d="M2462.005,1250.597c3.7-4.9,3.5-11.7-0.7-15.9l-8.4-8.4c-4.6,4.6-5.2,11.7-1.6,16.3l-7.3-7.3
		c-4.6-4.6-12.4-4.3-17.4,0.6l8.4,8.4c4.6,4.6,12.3,4.3,17.3-0.6l7.4,7.4c-4.7-3.6-11.7-3.1-16.3,1.6l8.4,8.4
		c3.7,3.7,9.5,4.3,14.2,1.7c4.5,7.9,6.5,17.1,6,26.2c-0.4-2.9-18.2-49-104.4-17.4c-3.3-3.7-7-7.5-11.3-11.4
		c-2.4-2.8-30.4-37-18.9-81.8c-21.8,5.8-38,22.3-43.5,41.6c-21.8-10.7-48.5-21.6-80.9-32.3c17.5,88.7,47.4,113.1,78.2,122.9
		c-21.8,13.6-46.2,30.6-73.4,51.7c56.8,21.5,94.8,20.7,123.2,10c14.024-5.535,25.748-13.443,36.298-22.203
		c0.001,0.001,0.001,0.002,0.002,0.003c0.027,0.027,0.188-0.105,0.448-0.378c31.705-26.482,52.873-60.522,94.251-60.522
		c-0.6,9.6-4,19.2-10.3,27.2l3.3,2.6C2481.206,1298.597,2479.706,1268.697,2462.005,1250.597z"/>
	<g>
		<g>
			<path style="fill:#FFFFFF;" d="M2337.406,1178.397c-21.8,5.8-38,22.3-43.5,41.6c28,13.8,48.1,27.3,62.4,40.2
				C2353.906,1257.397,2325.906,1223.197,2337.406,1178.397"/>
		</g>
	</g>
	<g>
		<g>
			<path style="fill:#FFFFFF;" d="M2293.605,1248.097l62.9,12.3c0,0-0.1-0.1-0.2-0.2c-14.3-12.9-34.4-26.4-62.4-40.2
				C2291.305,1228.997,2291.105,1238.597,2293.605,1248.097"/>
		</g>
	</g>
	<path style="fill:#CFD8EA;" d="M2367.605,1271.597c-3.3-3.7-7-7.5-11.3-11.4c0.1,0.1,0.2,0.2,0.2,0.2l-62.9-12.3
		c-2.5-9.5-2.3-19.1,0.3-28.1c-21.8-10.7-48.5-21.6-80.9-32.3c17.5,88.7,47.4,113.1,78.2,122.9
		C2321.206,1291.797,2346.406,1279.397,2367.605,1271.597L2367.605,1271.597L2367.605,1271.597"/>
	<path style="fill:#CFD8EA;" d="M2462.005,1250.597c3.7-4.9,3.5-11.7-0.7-15.9l-8.4-8.4c-4.6,4.6-5.2,11.7-1.6,16.3l-7.3-7.3
		c-4.6-4.6-12.4-4.3-17.4,0.6l8.4,8.4c4.6,4.6,12.3,4.3,17.3-0.6l7.4,7.4c-4.7-3.6-11.7-3.1-16.3,1.6l8.4,8.4
		c3.7,3.7,9.5,4.3,14.2,1.7c4.5,7.9,6.5,17.1,6,26.2c-0.4-2.9-18.2-49-104.4-17.4c39.7,45.1,10.1,78.9,9.7,78.4
		c-9.9-16.8-22.7-24.2-36.8-28.5c-5.5,20.3-3.5,37.7,0.5,50.8c56.5-22.3,75.7-83.1,131-83.1l0,0c-0.6,9.6-4,19.2-10.3,27.2l3.3,2.6
		C2481.206,1298.597,2479.706,1268.697,2462.005,1250.597z"/>
	<path style="fill:#F5F7FA;" d="M2367.605,1271.597L2367.605,1271.597C2367.505,1271.597,2367.505,1271.597,2367.605,1271.597
		c-21.2,7.8-46.4,20.2-76.4,39c16.8,5.3,33.9,6.3,49.3,11l0,0c14.1,4.3,26.9,11.7,36.8,28.5
		C2377.706,1350.497,2407.406,1316.697,2367.605,1271.597z"/>
	<path style="fill:#EBEFF6;" d="M2367.206,1607.197c-10.2-16.9-21.1-29.9-32.4-40c0,0-3.2,29.7-34.4,29.7
		c-23.1,0-37.7-18.2-37.7-49.6c0-5.2,0.4-10.1,1.2-14.5c-15.6-3.6-31.2-5.8-46.1-8.9c-1.5,7.4-2.3,15.2-2.3,23.4
		c0,55.2,35.4,92.6,85,92.6C2329.906,1639.897,2353.406,1627.797,2367.206,1607.197"/>
	<path style="fill:#FFFFFF;" d="M2472.005,1289.197L2472.005,1289.197c-0.6,9.6-4,19.2-10.3,27.2l3.3,2.6
		c16.2-20.4,14.7-50.3-3-68.4c3.7-4.9,3.5-11.7-0.7-15.9l-8.4-8.4c-4.6,4.6-5.2,11.7-1.6,16.3l-7.3-7.3c-4.6-4.6-12.4-4.3-17.4,0.6
		l8.4,8.4c4.6,4.6,12.3,4.3,17.3-0.6l7.4,7.4c-4.7-3.6-11.7-3.1-16.3,1.6l8.4,8.4c3.7,3.7,9.5,4.3,14.2,1.7c4.5,7.9,6.5,17.1,6,26.2
		"/>
</g>
<g>
	<path style="fill:#FFFFFF;" d="M1356.738,1735.674v-42.208h13.41v41.308c0,9.09,5.13,13.41,12.599,13.41
		c7.38,0,12.42-4.5,12.42-13.41v-41.308h13.499v42.208c0,17.549-11.969,25.469-25.919,25.469
		C1368.708,1761.143,1356.738,1753.223,1356.738,1735.674z"/>
	<path style="fill:#FFFFFF;" d="M1422.708,1693.466h26.009c20.069,0,32.038,12.869,32.038,33.388
		c0,20.34-12.149,33.119-32.578,33.119h-25.469V1693.466z M1448.806,1747.194c11.97,0,18.089-9.359,18.089-20.609
		c0-11.069-6.119-20.339-18.089-20.339h-12.779v40.948H1448.806z"/>
	<path style="fill:#FFFFFF;" d="M1552.124,1693.466v9.179l-23.759,57.328h-13.949l22.859-54.268h-28.529v-12.239H1552.124z"/>
	<path style="fill:#FFFFFF;" d="M1603.153,1738.554c0,12.689-9.63,22.499-24.839,22.499c-7.649,0-15.569-2.52-22.319-7.38
		l5.31-10.619c5.67,3.869,11.52,5.76,16.38,5.76c7.739,0,12.06-4.771,12.06-10.26c0-5.76-4.771-9.99-11.25-9.99
		c-3.87,0-7.829,1.44-10.979,4.41l-7.739-6.21l3.6-33.298h35.188v12.239h-25.289l-1.439,13.049c2.52-0.989,5.579-1.619,8.909-1.619
		C1593.074,1717.135,1603.153,1725.594,1603.153,1738.554z"/>
</g>
<g>
	<path style="fill:#FFFFFF;" d="M2458.111,1704.965c0,7.687-4.819,14.641-16.594,14.641h-6.954v15.557h-9.028v-45.082h16.654
		C2453.536,1690.08,2458.111,1697.461,2458.111,1704.965z M2448.899,1704.843c0-3.355-2.318-6.405-6.588-6.405h-7.748v12.994h7.26
		C2446.764,1711.432,2448.899,1708.137,2448.899,1704.843z"/>
	<path style="fill:#FFFFFF;" d="M2496.297,1701.915v33.247h-8.175v-3.844c-2.439,2.624-5.917,4.637-10.614,4.637
		c-9.639,0-16.472-7.687-16.472-17.569c0-10.005,7.016-17.325,16.472-17.325c4.697,0,8.113,2.074,10.614,4.819v-3.965H2496.297z
		 M2488.244,1718.508c0-5.186-3.843-9.578-9.334-9.578c-5.551,0-9.272,4.393-9.272,9.578c0,5.308,3.782,9.639,9.272,9.639
		C2484.401,1728.147,2488.244,1723.754,2488.244,1718.508z"/>
	<path style="fill:#FFFFFF;" d="M2504.041,1701.915h8.236v4.453c2.073-3.66,5.246-5.368,9.15-5.368c1.22,0,2.684,0.243,4.026,0.731
		l-0.732,8.235c-1.342-0.427-2.684-0.671-3.965-0.671c-4.515,0-8.114,2.807-8.114,10.066v15.8h-8.602V1701.915z"/>
	<path style="fill:#FFFFFF;" d="M2528.867,1692.886c0-2.989,2.318-5.246,5.308-5.246s5.308,2.257,5.308,5.246
		c0,3.051-2.318,5.308-5.308,5.308S2528.867,1695.937,2528.867,1692.886z M2529.844,1735.162v-33.247h8.602v33.247H2529.844z"/>
	<path style="fill:#FFFFFF;" d="M2543.507,1729.611l4.575-5.429c2.38,2.867,5.856,4.636,9.212,4.636
		c2.623,0,4.575-1.342,4.575-3.233c0-1.22-0.793-2.135-2.379-2.867c-1.83-0.854-6.223-2.257-8.235-3.294
		c-3.782-1.83-5.734-4.759-5.734-8.602c0-5.796,4.88-10.005,12.444-10.005c4.271,0,8.419,1.403,11.652,4.759l-4.271,5.551
		c-2.501-2.379-5.368-3.294-7.626-3.294c-2.379,0-3.782,1.281-3.782,2.807c0,1.158,0.732,2.317,2.929,3.05
		c2.074,0.793,5.368,1.892,7.991,3.233c3.722,1.952,5.612,4.515,5.612,8.419c0,6.039-5.124,10.676-13.237,10.676
		C2551.926,1736.017,2546.862,1733.881,2543.507,1729.611z"/>
</g>
</svg>
